<mxfile host="Electron" agent="Mozilla/5.0 (Windows NT 10.0; Win64; x64) AppleWebKit/537.36 (KHTML, like Gecko) draw.io/27.0.5 Chrome/134.0.6998.205 Electron/35.3.0 Safari/537.36" version="27.0.5">
  <diagram name="Page-1" id="YJ2P7HaTExXRbPD54HOl">
    <mxGraphModel dx="10357" dy="6707" grid="1" gridSize="10" guides="1" tooltips="1" connect="1" arrows="1" fold="1" page="1" pageScale="1" pageWidth="850" pageHeight="1100" math="0" shadow="0">
      <root>
        <mxCell id="0" />
        <mxCell id="1" parent="0" />
        <mxCell id="CmxnrNPB1Q9Q9WEZojjF-64" style="edgeStyle=orthogonalEdgeStyle;rounded=0;orthogonalLoop=1;jettySize=auto;html=1;entryX=0.5;entryY=0;entryDx=0;entryDy=0;" edge="1" parent="1" source="CmxnrNPB1Q9Q9WEZojjF-4" target="CmxnrNPB1Q9Q9WEZojjF-63">
          <mxGeometry relative="1" as="geometry" />
        </mxCell>
        <mxCell id="CmxnrNPB1Q9Q9WEZojjF-80" style="edgeStyle=orthogonalEdgeStyle;rounded=0;orthogonalLoop=1;jettySize=auto;html=1;entryX=0;entryY=0.5;entryDx=0;entryDy=0;" edge="1" parent="1" source="CmxnrNPB1Q9Q9WEZojjF-4" target="CmxnrNPB1Q9Q9WEZojjF-81">
          <mxGeometry relative="1" as="geometry">
            <mxPoint x="405" y="-530" as="targetPoint" />
          </mxGeometry>
        </mxCell>
        <mxCell id="CmxnrNPB1Q9Q9WEZojjF-4" value="student" style="rounded=0;whiteSpace=wrap;html=1;" vertex="1" parent="1">
          <mxGeometry x="195" y="-560" width="120" height="60" as="geometry" />
        </mxCell>
        <mxCell id="CmxnrNPB1Q9Q9WEZojjF-7" style="edgeStyle=orthogonalEdgeStyle;rounded=0;orthogonalLoop=1;jettySize=auto;html=1;entryX=0.5;entryY=0;entryDx=0;entryDy=0;" edge="1" parent="1" source="CmxnrNPB1Q9Q9WEZojjF-5" target="CmxnrNPB1Q9Q9WEZojjF-4">
          <mxGeometry relative="1" as="geometry">
            <Array as="points">
              <mxPoint x="202" y="-600" />
              <mxPoint x="255" y="-600" />
            </Array>
          </mxGeometry>
        </mxCell>
        <mxCell id="CmxnrNPB1Q9Q9WEZojjF-5" value="&lt;u&gt;St-id&lt;/u&gt;" style="ellipse;whiteSpace=wrap;html=1;" vertex="1" parent="1">
          <mxGeometry x="175" y="-640" width="55" height="30" as="geometry" />
        </mxCell>
        <mxCell id="CmxnrNPB1Q9Q9WEZojjF-8" value="student name" style="ellipse;whiteSpace=wrap;html=1;" vertex="1" parent="1">
          <mxGeometry x="245" y="-640" width="110" height="30" as="geometry" />
        </mxCell>
        <mxCell id="CmxnrNPB1Q9Q9WEZojjF-11" style="edgeStyle=orthogonalEdgeStyle;rounded=0;orthogonalLoop=1;jettySize=auto;html=1;entryX=0.875;entryY=0.017;entryDx=0;entryDy=0;entryPerimeter=0;" edge="1" parent="1" source="CmxnrNPB1Q9Q9WEZojjF-8" target="CmxnrNPB1Q9Q9WEZojjF-4">
          <mxGeometry relative="1" as="geometry" />
        </mxCell>
        <mxCell id="CmxnrNPB1Q9Q9WEZojjF-12" value="&lt;font&gt;F_name&lt;/font&gt;" style="ellipse;whiteSpace=wrap;html=1;" vertex="1" parent="1">
          <mxGeometry x="275" y="-710" width="65" height="40" as="geometry" />
        </mxCell>
        <mxCell id="CmxnrNPB1Q9Q9WEZojjF-17" style="edgeStyle=orthogonalEdgeStyle;rounded=0;orthogonalLoop=1;jettySize=auto;html=1;entryX=1;entryY=0.5;entryDx=0;entryDy=0;" edge="1" parent="1" source="CmxnrNPB1Q9Q9WEZojjF-13" target="CmxnrNPB1Q9Q9WEZojjF-8">
          <mxGeometry relative="1" as="geometry" />
        </mxCell>
        <mxCell id="CmxnrNPB1Q9Q9WEZojjF-13" value="&lt;font&gt;L_name&lt;/font&gt;" style="ellipse;whiteSpace=wrap;html=1;" vertex="1" parent="1">
          <mxGeometry x="375" y="-645" width="65" height="40" as="geometry" />
        </mxCell>
        <mxCell id="CmxnrNPB1Q9Q9WEZojjF-14" style="edgeStyle=orthogonalEdgeStyle;rounded=0;orthogonalLoop=1;jettySize=auto;html=1;entryX=0.573;entryY=-0.033;entryDx=0;entryDy=0;entryPerimeter=0;" edge="1" parent="1" source="CmxnrNPB1Q9Q9WEZojjF-12" target="CmxnrNPB1Q9Q9WEZojjF-8">
          <mxGeometry relative="1" as="geometry" />
        </mxCell>
        <mxCell id="CmxnrNPB1Q9Q9WEZojjF-18" value="St_age" style="ellipse;whiteSpace=wrap;html=1;" vertex="1" parent="1">
          <mxGeometry x="112.5" y="-610" width="60" height="40" as="geometry" />
        </mxCell>
        <mxCell id="CmxnrNPB1Q9Q9WEZojjF-19" style="edgeStyle=orthogonalEdgeStyle;rounded=0;orthogonalLoop=1;jettySize=auto;html=1;entryX=0.083;entryY=0;entryDx=0;entryDy=0;entryPerimeter=0;" edge="1" parent="1" source="CmxnrNPB1Q9Q9WEZojjF-18" target="CmxnrNPB1Q9Q9WEZojjF-4">
          <mxGeometry relative="1" as="geometry">
            <Array as="points">
              <mxPoint x="205" y="-580" />
            </Array>
          </mxGeometry>
        </mxCell>
        <mxCell id="CmxnrNPB1Q9Q9WEZojjF-21" style="edgeStyle=orthogonalEdgeStyle;rounded=0;orthogonalLoop=1;jettySize=auto;html=1;entryX=0;entryY=0.5;entryDx=0;entryDy=0;" edge="1" parent="1" source="CmxnrNPB1Q9Q9WEZojjF-20" target="CmxnrNPB1Q9Q9WEZojjF-4">
          <mxGeometry relative="1" as="geometry" />
        </mxCell>
        <mxCell id="CmxnrNPB1Q9Q9WEZojjF-20" value="St_adress" style="ellipse;whiteSpace=wrap;html=1;" vertex="1" parent="1">
          <mxGeometry x="112.5" y="-550" width="60" height="40" as="geometry" />
        </mxCell>
        <mxCell id="CmxnrNPB1Q9Q9WEZojjF-69" style="edgeStyle=orthogonalEdgeStyle;rounded=0;orthogonalLoop=1;jettySize=auto;html=1;entryX=0.5;entryY=0;entryDx=0;entryDy=0;" edge="1" parent="1" source="CmxnrNPB1Q9Q9WEZojjF-22" target="CmxnrNPB1Q9Q9WEZojjF-68">
          <mxGeometry relative="1" as="geometry" />
        </mxCell>
        <mxCell id="CmxnrNPB1Q9Q9WEZojjF-83" style="edgeStyle=orthogonalEdgeStyle;rounded=0;orthogonalLoop=1;jettySize=auto;html=1;entryX=0.062;entryY=0.487;entryDx=0;entryDy=0;entryPerimeter=0;" edge="1" parent="1" source="CmxnrNPB1Q9Q9WEZojjF-22" target="CmxnrNPB1Q9Q9WEZojjF-84">
          <mxGeometry relative="1" as="geometry">
            <mxPoint x="835" y="-530" as="targetPoint" />
          </mxGeometry>
        </mxCell>
        <mxCell id="CmxnrNPB1Q9Q9WEZojjF-22" value="department" style="rounded=0;whiteSpace=wrap;html=1;" vertex="1" parent="1">
          <mxGeometry x="635" y="-560" width="120" height="60" as="geometry" />
        </mxCell>
        <mxCell id="CmxnrNPB1Q9Q9WEZojjF-23" value="&lt;u&gt;Dept_id&lt;/u&gt;" style="ellipse;whiteSpace=wrap;html=1;" vertex="1" parent="1">
          <mxGeometry x="625" y="-650" width="60" height="40" as="geometry" />
        </mxCell>
        <mxCell id="CmxnrNPB1Q9Q9WEZojjF-24" style="edgeStyle=orthogonalEdgeStyle;rounded=0;orthogonalLoop=1;jettySize=auto;html=1;entryX=0.182;entryY=-0.052;entryDx=0;entryDy=0;entryPerimeter=0;" edge="1" parent="1" source="CmxnrNPB1Q9Q9WEZojjF-23" target="CmxnrNPB1Q9Q9WEZojjF-22">
          <mxGeometry relative="1" as="geometry" />
        </mxCell>
        <mxCell id="CmxnrNPB1Q9Q9WEZojjF-25" value="Dep_name" style="ellipse;whiteSpace=wrap;html=1;" vertex="1" parent="1">
          <mxGeometry x="705" y="-645" width="60" height="40" as="geometry" />
        </mxCell>
        <mxCell id="CmxnrNPB1Q9Q9WEZojjF-88" style="edgeStyle=orthogonalEdgeStyle;rounded=0;orthogonalLoop=1;jettySize=auto;html=1;" edge="1" parent="1" source="CmxnrNPB1Q9Q9WEZojjF-35" target="CmxnrNPB1Q9Q9WEZojjF-89">
          <mxGeometry relative="1" as="geometry">
            <mxPoint x="245" y="-140" as="targetPoint" />
            <Array as="points">
              <mxPoint x="255" y="-170" />
              <mxPoint x="255" y="-170" />
            </Array>
          </mxGeometry>
        </mxCell>
        <mxCell id="CmxnrNPB1Q9Q9WEZojjF-35" value="course" style="rounded=0;whiteSpace=wrap;html=1;" vertex="1" parent="1">
          <mxGeometry x="195" y="-315" width="120" height="60" as="geometry" />
        </mxCell>
        <mxCell id="CmxnrNPB1Q9Q9WEZojjF-41" style="edgeStyle=orthogonalEdgeStyle;rounded=0;orthogonalLoop=1;jettySize=auto;html=1;entryX=0;entryY=0.5;entryDx=0;entryDy=0;" edge="1" parent="1" source="CmxnrNPB1Q9Q9WEZojjF-36" target="CmxnrNPB1Q9Q9WEZojjF-35">
          <mxGeometry relative="1" as="geometry" />
        </mxCell>
        <mxCell id="CmxnrNPB1Q9Q9WEZojjF-36" value="&lt;u&gt;Crs_id&lt;span style=&quot;color: rgba(0, 0, 0, 0); font-family: monospace; font-size: 0px; text-align: start; text-wrap-mode: nowrap;&quot;&gt;%3CmxGraphModel%3E%3Croot%3E%3CmxCell%20id%3D%220%22%2F%3E%3CmxCell%20id%3D%221%22%20parent%3D%220%22%2F%3E%3CmxCell%20id%3D%222%22%20value%3D%22%26lt%3Bfont%26gt%3Bf_name%26lt%3B%2Ffont%26gt%3B%22%20style%3D%22ellipse%3BwhiteSpace%3Dwrap%3Bhtml%3D1%3B%22%20vertex%3D%221%22%20parent%3D%221%22%3E%3CmxGeometry%20x%3D%22350%22%20y%3D%22190%22%20width%3D%2265%22%20height%3D%2240%22%20as%3D%22geometry%22%2F%3E%3C%2FmxCell%3E%3C%2Froot%3E%3C%2FmxGraphModel%3E&lt;/span&gt;&lt;/u&gt;" style="ellipse;whiteSpace=wrap;html=1;" vertex="1" parent="1">
          <mxGeometry x="102.5" y="-315" width="60" height="40" as="geometry" />
        </mxCell>
        <mxCell id="CmxnrNPB1Q9Q9WEZojjF-37" value="Crs_name&lt;span style=&quot;color: rgba(0, 0, 0, 0); font-family: monospace; font-size: 0px; text-align: start; text-wrap-mode: nowrap;&quot;&gt;%3CmxGraphModel%3E%3Croot%3E%3CmxCell%20id%3D%220%22%2F%3E%3CmxCell%20id%3D%221%22%20parent%3D%220%22%2F%3E%3CmxCell%20id%3D%222%22%20value%3D%22%26lt%3Bfont%26gt%3Bf_name%26lt%3B%2Ffont%26gt%3B%22%20style%3D%22ellipse%3BwhiteSpace%3Dwrap%3Bhtml%3D1%3B%22%20vertex%3D%221%22%20parent%3D%221%22%3E%3CmxGeometry%20x%3D%22350%22%20y%3D%22190%22%20width%3D%2265%22%20height%3D%2240%22%20as%3D%22geometry%22%2F%3E%3C%2FmxCell%3E%3C%2Froot%3E%3C%2FmxGraphModel%3E&lt;/span&gt;" style="ellipse;whiteSpace=wrap;html=1;" vertex="1" parent="1">
          <mxGeometry x="95" y="-265" width="60" height="40" as="geometry" />
        </mxCell>
        <mxCell id="CmxnrNPB1Q9Q9WEZojjF-38" value="Crs_duration&lt;span style=&quot;color: rgba(0, 0, 0, 0); font-family: monospace; font-size: 0px; text-align: start; text-wrap-mode: nowrap;&quot;&gt;%3CmxGraphModel%3E%3Croot%3E%3CmxCell%20id%3D%220%22%2F%3E%3CmxCell%20id%3D%221%22%20parent%3D%220%22%2F%3E%3CmxCell%20id%3D%222%22%20value%3D%22%26lt%3Bfont%26gt%3Bf_name%26lt%3B%2Ffont%26gt%3B%22%20style%3D%22ellipse%3BwhiteSpace%3Dwrap%3Bhtml%3D1%3B%22%20vertex%3D%221%22%20parent%3D%221%22%3E%3CmxGeometry%20x%3D%22350%22%20y%3D%22190%22%20width%3D%2265%22%20height%3D%2240%22%20as%3D%22geometry%22%2F%3E%3C%2FmxCell%3E%3C%2Froot%3E%3C%2FmxGraphModel%3E&lt;/span&gt;" style="ellipse;whiteSpace=wrap;html=1;" vertex="1" parent="1">
          <mxGeometry x="162.5" y="-225" width="80" height="40" as="geometry" />
        </mxCell>
        <mxCell id="CmxnrNPB1Q9Q9WEZojjF-40" value="Crs_description&lt;span style=&quot;color: rgba(0, 0, 0, 0); font-family: monospace; font-size: 0px; text-align: start; text-wrap-mode: nowrap;&quot;&gt;%3CmxGraphModel%3E%3Croot%3E%3CmxCell%20id%3D%220%22%2F%3E%3CmxCell%20id%3D%221%22%20parent%3D%220%22%2F%3E%3CmxCell%20id%3D%222%22%20value%3D%22%26lt%3Bfont%26gt%3Bf_name%26lt%3B%2Ffont%26gt%3B%22%20style%3D%22ellipse%3BwhiteSpace%3Dwrap%3Bhtml%3D1%3B%22%20vertex%3D%221%22%20parent%3D%221%22%3E%3CmxGeometry%20x%3D%22350%22%20y%3D%22190%22%20width%3D%2265%22%20height%3D%2240%22%20as%3D%22geometry%22%2F%3E%3C%2FmxCell%3E%3C%2Froot%3E%3C%2FmxGraphModel%3E&lt;/span&gt;" style="ellipse;whiteSpace=wrap;html=1;" vertex="1" parent="1">
          <mxGeometry x="262.5" y="-225" width="90" height="40" as="geometry" />
        </mxCell>
        <mxCell id="CmxnrNPB1Q9Q9WEZojjF-42" style="edgeStyle=orthogonalEdgeStyle;rounded=0;orthogonalLoop=1;jettySize=auto;html=1;entryX=-0.002;entryY=0.931;entryDx=0;entryDy=0;entryPerimeter=0;" edge="1" parent="1" source="CmxnrNPB1Q9Q9WEZojjF-37" target="CmxnrNPB1Q9Q9WEZojjF-35">
          <mxGeometry relative="1" as="geometry" />
        </mxCell>
        <mxCell id="CmxnrNPB1Q9Q9WEZojjF-46" style="edgeStyle=orthogonalEdgeStyle;rounded=0;orthogonalLoop=1;jettySize=auto;html=1;entryX=0.803;entryY=-0.023;entryDx=0;entryDy=0;entryPerimeter=0;" edge="1" parent="1" source="CmxnrNPB1Q9Q9WEZojjF-25" target="CmxnrNPB1Q9Q9WEZojjF-22">
          <mxGeometry relative="1" as="geometry" />
        </mxCell>
        <mxCell id="CmxnrNPB1Q9Q9WEZojjF-48" style="edgeStyle=orthogonalEdgeStyle;rounded=0;orthogonalLoop=1;jettySize=auto;html=1;entryX=0.938;entryY=1;entryDx=0;entryDy=0;entryPerimeter=0;" edge="1" parent="1" source="CmxnrNPB1Q9Q9WEZojjF-40" target="CmxnrNPB1Q9Q9WEZojjF-35">
          <mxGeometry relative="1" as="geometry" />
        </mxCell>
        <mxCell id="CmxnrNPB1Q9Q9WEZojjF-49" style="edgeStyle=orthogonalEdgeStyle;rounded=0;orthogonalLoop=1;jettySize=auto;html=1;entryX=0.067;entryY=0.983;entryDx=0;entryDy=0;entryPerimeter=0;" edge="1" parent="1" source="CmxnrNPB1Q9Q9WEZojjF-38" target="CmxnrNPB1Q9Q9WEZojjF-35">
          <mxGeometry relative="1" as="geometry" />
        </mxCell>
        <mxCell id="CmxnrNPB1Q9Q9WEZojjF-72" style="edgeStyle=orthogonalEdgeStyle;rounded=0;orthogonalLoop=1;jettySize=auto;html=1;entryX=1;entryY=0.5;entryDx=0;entryDy=0;" edge="1" parent="1" source="CmxnrNPB1Q9Q9WEZojjF-50" target="CmxnrNPB1Q9Q9WEZojjF-71">
          <mxGeometry relative="1" as="geometry" />
        </mxCell>
        <mxCell id="CmxnrNPB1Q9Q9WEZojjF-50" value="instuctor" style="rounded=0;whiteSpace=wrap;html=1;" vertex="1" parent="1">
          <mxGeometry x="635" y="-310" width="120" height="60" as="geometry" />
        </mxCell>
        <mxCell id="CmxnrNPB1Q9Q9WEZojjF-51" value="&lt;u&gt;Ins_id&lt;/u&gt;" style="ellipse;whiteSpace=wrap;html=1;" vertex="1" parent="1">
          <mxGeometry x="795" y="-340" width="60" height="40" as="geometry" />
        </mxCell>
        <mxCell id="CmxnrNPB1Q9Q9WEZojjF-52" value="Ins_name" style="ellipse;whiteSpace=wrap;html=1;" vertex="1" parent="1">
          <mxGeometry x="585" y="-230" width="60" height="40" as="geometry" />
        </mxCell>
        <mxCell id="CmxnrNPB1Q9Q9WEZojjF-53" value="Ins_salary" style="ellipse;whiteSpace=wrap;html=1;" vertex="1" parent="1">
          <mxGeometry x="655" y="-230" width="60" height="40" as="geometry" />
        </mxCell>
        <mxCell id="CmxnrNPB1Q9Q9WEZojjF-59" style="edgeStyle=orthogonalEdgeStyle;rounded=0;orthogonalLoop=1;jettySize=auto;html=1;entryX=1;entryY=0.75;entryDx=0;entryDy=0;" edge="1" parent="1" source="CmxnrNPB1Q9Q9WEZojjF-54" target="CmxnrNPB1Q9Q9WEZojjF-50">
          <mxGeometry relative="1" as="geometry">
            <Array as="points">
              <mxPoint x="835" y="-240" />
              <mxPoint x="775" y="-240" />
              <mxPoint x="775" y="-265" />
            </Array>
          </mxGeometry>
        </mxCell>
        <mxCell id="CmxnrNPB1Q9Q9WEZojjF-54" value="Ins_hourRate" style="ellipse;whiteSpace=wrap;html=1;" vertex="1" parent="1">
          <mxGeometry x="795" y="-230" width="80" height="40" as="geometry" />
        </mxCell>
        <mxCell id="CmxnrNPB1Q9Q9WEZojjF-60" style="edgeStyle=orthogonalEdgeStyle;rounded=0;orthogonalLoop=1;jettySize=auto;html=1;entryX=1;entryY=1;entryDx=0;entryDy=0;" edge="1" parent="1" source="CmxnrNPB1Q9Q9WEZojjF-55" target="CmxnrNPB1Q9Q9WEZojjF-50">
          <mxGeometry relative="1" as="geometry" />
        </mxCell>
        <mxCell id="CmxnrNPB1Q9Q9WEZojjF-55" value="Ins_bouns" style="ellipse;whiteSpace=wrap;html=1;" vertex="1" parent="1">
          <mxGeometry x="725" y="-230" width="60" height="40" as="geometry" />
        </mxCell>
        <mxCell id="CmxnrNPB1Q9Q9WEZojjF-58" style="edgeStyle=orthogonalEdgeStyle;rounded=0;orthogonalLoop=1;jettySize=auto;html=1;" edge="1" parent="1" source="CmxnrNPB1Q9Q9WEZojjF-56" target="CmxnrNPB1Q9Q9WEZojjF-50">
          <mxGeometry relative="1" as="geometry" />
        </mxCell>
        <mxCell id="CmxnrNPB1Q9Q9WEZojjF-56" value="Ins_address" style="ellipse;whiteSpace=wrap;html=1;" vertex="1" parent="1">
          <mxGeometry x="795" y="-290" width="70" height="40" as="geometry" />
        </mxCell>
        <mxCell id="CmxnrNPB1Q9Q9WEZojjF-57" style="edgeStyle=orthogonalEdgeStyle;rounded=0;orthogonalLoop=1;jettySize=auto;html=1;entryX=1.03;entryY=0.126;entryDx=0;entryDy=0;entryPerimeter=0;" edge="1" parent="1" source="CmxnrNPB1Q9Q9WEZojjF-51" target="CmxnrNPB1Q9Q9WEZojjF-50">
          <mxGeometry relative="1" as="geometry" />
        </mxCell>
        <mxCell id="CmxnrNPB1Q9Q9WEZojjF-61" style="edgeStyle=orthogonalEdgeStyle;rounded=0;orthogonalLoop=1;jettySize=auto;html=1;entryX=0.426;entryY=0.954;entryDx=0;entryDy=0;entryPerimeter=0;" edge="1" parent="1" source="CmxnrNPB1Q9Q9WEZojjF-53" target="CmxnrNPB1Q9Q9WEZojjF-50">
          <mxGeometry relative="1" as="geometry" />
        </mxCell>
        <mxCell id="CmxnrNPB1Q9Q9WEZojjF-62" style="edgeStyle=orthogonalEdgeStyle;rounded=0;orthogonalLoop=1;jettySize=auto;html=1;entryX=0.139;entryY=1.011;entryDx=0;entryDy=0;entryPerimeter=0;" edge="1" parent="1" source="CmxnrNPB1Q9Q9WEZojjF-52" target="CmxnrNPB1Q9Q9WEZojjF-50">
          <mxGeometry relative="1" as="geometry">
            <Array as="points">
              <mxPoint x="645" y="-250" />
              <mxPoint x="652" y="-250" />
            </Array>
          </mxGeometry>
        </mxCell>
        <mxCell id="CmxnrNPB1Q9Q9WEZojjF-65" style="edgeStyle=orthogonalEdgeStyle;rounded=0;orthogonalLoop=1;jettySize=auto;html=1;" edge="1" parent="1" source="CmxnrNPB1Q9Q9WEZojjF-63" target="CmxnrNPB1Q9Q9WEZojjF-35">
          <mxGeometry relative="1" as="geometry" />
        </mxCell>
        <mxCell id="CmxnrNPB1Q9Q9WEZojjF-63" value="take" style="rhombus;whiteSpace=wrap;html=1;" vertex="1" parent="1">
          <mxGeometry x="215" y="-450" width="80" height="80" as="geometry" />
        </mxCell>
        <mxCell id="CmxnrNPB1Q9Q9WEZojjF-67" style="edgeStyle=orthogonalEdgeStyle;rounded=0;orthogonalLoop=1;jettySize=auto;html=1;entryX=0;entryY=0.5;entryDx=0;entryDy=0;" edge="1" parent="1" source="CmxnrNPB1Q9Q9WEZojjF-66" target="CmxnrNPB1Q9Q9WEZojjF-63">
          <mxGeometry relative="1" as="geometry" />
        </mxCell>
        <mxCell id="CmxnrNPB1Q9Q9WEZojjF-66" value="grade" style="ellipse;whiteSpace=wrap;html=1;" vertex="1" parent="1">
          <mxGeometry x="112.5" y="-430" width="60" height="40" as="geometry" />
        </mxCell>
        <mxCell id="CmxnrNPB1Q9Q9WEZojjF-70" style="edgeStyle=orthogonalEdgeStyle;rounded=0;orthogonalLoop=1;jettySize=auto;html=1;entryX=0.5;entryY=0;entryDx=0;entryDy=0;" edge="1" parent="1" source="CmxnrNPB1Q9Q9WEZojjF-68" target="CmxnrNPB1Q9Q9WEZojjF-50">
          <mxGeometry relative="1" as="geometry" />
        </mxCell>
        <mxCell id="CmxnrNPB1Q9Q9WEZojjF-68" value="contains" style="rhombus;whiteSpace=wrap;html=1;" vertex="1" parent="1">
          <mxGeometry x="655" y="-460" width="80" height="80" as="geometry" />
        </mxCell>
        <mxCell id="CmxnrNPB1Q9Q9WEZojjF-71" value="teaches" style="rhombus;whiteSpace=wrap;html=1;" vertex="1" parent="1">
          <mxGeometry x="435" y="-320" width="80" height="80" as="geometry" />
        </mxCell>
        <mxCell id="CmxnrNPB1Q9Q9WEZojjF-74" style="edgeStyle=orthogonalEdgeStyle;rounded=0;orthogonalLoop=1;jettySize=auto;html=1;entryX=1.032;entryY=0.595;entryDx=0;entryDy=0;entryPerimeter=0;" edge="1" parent="1" source="CmxnrNPB1Q9Q9WEZojjF-71" target="CmxnrNPB1Q9Q9WEZojjF-35">
          <mxGeometry relative="1" as="geometry" />
        </mxCell>
        <mxCell id="CmxnrNPB1Q9Q9WEZojjF-75" value="topic" style="rounded=0;whiteSpace=wrap;html=1;" vertex="1" parent="1">
          <mxGeometry x="405" y="-170" width="120" height="60" as="geometry" />
        </mxCell>
        <mxCell id="CmxnrNPB1Q9Q9WEZojjF-77" style="edgeStyle=orthogonalEdgeStyle;rounded=0;orthogonalLoop=1;jettySize=auto;html=1;" edge="1" parent="1" source="CmxnrNPB1Q9Q9WEZojjF-76" target="CmxnrNPB1Q9Q9WEZojjF-75">
          <mxGeometry relative="1" as="geometry" />
        </mxCell>
        <mxCell id="CmxnrNPB1Q9Q9WEZojjF-76" value="&lt;u&gt;top_id&lt;/u&gt;" style="ellipse;whiteSpace=wrap;html=1;" vertex="1" parent="1">
          <mxGeometry x="430" y="-90" width="60" height="40" as="geometry" />
        </mxCell>
        <mxCell id="CmxnrNPB1Q9Q9WEZojjF-79" style="edgeStyle=orthogonalEdgeStyle;rounded=0;orthogonalLoop=1;jettySize=auto;html=1;" edge="1" parent="1" source="CmxnrNPB1Q9Q9WEZojjF-78" target="CmxnrNPB1Q9Q9WEZojjF-75">
          <mxGeometry relative="1" as="geometry" />
        </mxCell>
        <mxCell id="CmxnrNPB1Q9Q9WEZojjF-78" value="&lt;u&gt;top_nme&lt;/u&gt;" style="ellipse;whiteSpace=wrap;html=1;" vertex="1" parent="1">
          <mxGeometry x="550" y="-160" width="60" height="40" as="geometry" />
        </mxCell>
        <mxCell id="CmxnrNPB1Q9Q9WEZojjF-82" style="edgeStyle=orthogonalEdgeStyle;rounded=0;orthogonalLoop=1;jettySize=auto;html=1;entryX=0;entryY=0.5;entryDx=0;entryDy=0;" edge="1" parent="1" source="CmxnrNPB1Q9Q9WEZojjF-81" target="CmxnrNPB1Q9Q9WEZojjF-22">
          <mxGeometry relative="1" as="geometry" />
        </mxCell>
        <mxCell id="CmxnrNPB1Q9Q9WEZojjF-81" value="belongs" style="rhombus;whiteSpace=wrap;html=1;" vertex="1" parent="1">
          <mxGeometry x="445" y="-570" width="80" height="80" as="geometry" />
        </mxCell>
        <mxCell id="CmxnrNPB1Q9Q9WEZojjF-84" value="managed" style="rhombus;whiteSpace=wrap;html=1;" vertex="1" parent="1">
          <mxGeometry x="845" y="-570" width="80" height="80" as="geometry" />
        </mxCell>
        <mxCell id="CmxnrNPB1Q9Q9WEZojjF-85" style="edgeStyle=orthogonalEdgeStyle;rounded=0;orthogonalLoop=1;jettySize=auto;html=1;entryX=0.82;entryY=-0.017;entryDx=0;entryDy=0;entryPerimeter=0;" edge="1" parent="1" source="CmxnrNPB1Q9Q9WEZojjF-84" target="CmxnrNPB1Q9Q9WEZojjF-50">
          <mxGeometry relative="1" as="geometry">
            <Array as="points">
              <mxPoint x="885" y="-370" />
              <mxPoint x="733" y="-370" />
            </Array>
          </mxGeometry>
        </mxCell>
        <mxCell id="CmxnrNPB1Q9Q9WEZojjF-87" style="edgeStyle=orthogonalEdgeStyle;rounded=0;orthogonalLoop=1;jettySize=auto;html=1;" edge="1" parent="1" source="CmxnrNPB1Q9Q9WEZojjF-86" target="CmxnrNPB1Q9Q9WEZojjF-84">
          <mxGeometry relative="1" as="geometry" />
        </mxCell>
        <mxCell id="CmxnrNPB1Q9Q9WEZojjF-86" value="Hiring_date" style="ellipse;whiteSpace=wrap;html=1;" vertex="1" parent="1">
          <mxGeometry x="955" y="-550" width="70" height="40" as="geometry" />
        </mxCell>
        <mxCell id="CmxnrNPB1Q9Q9WEZojjF-90" style="edgeStyle=orthogonalEdgeStyle;rounded=0;orthogonalLoop=1;jettySize=auto;html=1;entryX=0;entryY=0.5;entryDx=0;entryDy=0;" edge="1" parent="1" source="CmxnrNPB1Q9Q9WEZojjF-89" target="CmxnrNPB1Q9Q9WEZojjF-75">
          <mxGeometry relative="1" as="geometry" />
        </mxCell>
        <mxCell id="CmxnrNPB1Q9Q9WEZojjF-89" value="classified" style="rhombus;whiteSpace=wrap;html=1;" vertex="1" parent="1">
          <mxGeometry x="215" y="-160" width="80" height="80" as="geometry" />
        </mxCell>
        <mxCell id="CmxnrNPB1Q9Q9WEZojjF-91" value="m" style="text;html=1;align=center;verticalAlign=middle;whiteSpace=wrap;rounded=0;" vertex="1" parent="1">
          <mxGeometry x="235" y="-345" width="60" height="30" as="geometry" />
        </mxCell>
        <mxCell id="CmxnrNPB1Q9Q9WEZojjF-92" value="m" style="text;html=1;align=center;verticalAlign=middle;whiteSpace=wrap;rounded=0;" vertex="1" parent="1">
          <mxGeometry x="655" y="-340" width="60" height="30" as="geometry" />
        </mxCell>
        <mxCell id="CmxnrNPB1Q9Q9WEZojjF-93" value="1" style="text;html=1;align=center;verticalAlign=middle;whiteSpace=wrap;rounded=0;" vertex="1" parent="1">
          <mxGeometry x="655" y="-500" width="60" height="30" as="geometry" />
        </mxCell>
        <mxCell id="CmxnrNPB1Q9Q9WEZojjF-94" value="1" style="text;html=1;align=center;verticalAlign=middle;whiteSpace=wrap;rounded=0;" vertex="1" parent="1">
          <mxGeometry x="735" y="-530" width="60" height="30" as="geometry" />
        </mxCell>
        <mxCell id="CmxnrNPB1Q9Q9WEZojjF-95" value="1" style="text;html=1;align=center;verticalAlign=middle;whiteSpace=wrap;rounded=0;" vertex="1" parent="1">
          <mxGeometry x="715" y="-340" width="60" height="30" as="geometry" />
        </mxCell>
        <mxCell id="CmxnrNPB1Q9Q9WEZojjF-97" style="edgeStyle=orthogonalEdgeStyle;rounded=0;orthogonalLoop=1;jettySize=auto;html=1;entryX=0.5;entryY=0;entryDx=0;entryDy=0;" edge="1" parent="1" source="CmxnrNPB1Q9Q9WEZojjF-96" target="CmxnrNPB1Q9Q9WEZojjF-71">
          <mxGeometry relative="1" as="geometry" />
        </mxCell>
        <mxCell id="CmxnrNPB1Q9Q9WEZojjF-96" value="evalution" style="ellipse;whiteSpace=wrap;html=1;" vertex="1" parent="1">
          <mxGeometry x="445" y="-410" width="60" height="40" as="geometry" />
        </mxCell>
        <mxCell id="CmxnrNPB1Q9Q9WEZojjF-98" value="m" style="text;html=1;align=center;verticalAlign=middle;whiteSpace=wrap;rounded=0;" vertex="1" parent="1">
          <mxGeometry x="595" y="-305" width="60" height="30" as="geometry" />
        </mxCell>
        <mxCell id="CmxnrNPB1Q9Q9WEZojjF-99" value="m" style="text;html=1;align=center;verticalAlign=middle;whiteSpace=wrap;rounded=0;" vertex="1" parent="1">
          <mxGeometry x="305" y="-305" width="60" height="30" as="geometry" />
        </mxCell>
        <mxCell id="CmxnrNPB1Q9Q9WEZojjF-100" value="1" style="text;html=1;align=center;verticalAlign=middle;whiteSpace=wrap;rounded=0;" vertex="1" parent="1">
          <mxGeometry x="360" y="-170" width="60" height="30" as="geometry" />
        </mxCell>
        <mxCell id="CmxnrNPB1Q9Q9WEZojjF-102" value="m" style="text;html=1;align=center;verticalAlign=middle;whiteSpace=wrap;rounded=0;" vertex="1" parent="1">
          <mxGeometry x="235" y="-260" width="60" height="30" as="geometry" />
        </mxCell>
        <mxCell id="CmxnrNPB1Q9Q9WEZojjF-103" value="m" style="text;html=1;align=center;verticalAlign=middle;whiteSpace=wrap;rounded=0;" vertex="1" parent="1">
          <mxGeometry x="300" y="-560" width="60" height="30" as="geometry" />
        </mxCell>
        <mxCell id="CmxnrNPB1Q9Q9WEZojjF-104" value="1" style="text;html=1;align=center;verticalAlign=middle;whiteSpace=wrap;rounded=0;" vertex="1" parent="1">
          <mxGeometry x="595" y="-560" width="60" height="30" as="geometry" />
        </mxCell>
        <mxCell id="CmxnrNPB1Q9Q9WEZojjF-105" value="m" style="text;html=1;align=center;verticalAlign=middle;whiteSpace=wrap;rounded=0;" vertex="1" parent="1">
          <mxGeometry x="240" y="-500" width="60" height="30" as="geometry" />
        </mxCell>
        <mxCell id="CmxnrNPB1Q9Q9WEZojjF-106" value="&lt;font style=&quot;font-size: 55px;&quot;&gt;problem 1&lt;/font&gt;" style="text;html=1;align=center;verticalAlign=middle;whiteSpace=wrap;rounded=0;" vertex="1" parent="1">
          <mxGeometry x="312.5" y="-860" width="372.5" height="120" as="geometry" />
        </mxCell>
        <mxCell id="CmxnrNPB1Q9Q9WEZojjF-107" value="&lt;font style=&quot;font-size: 55px;&quot;&gt;problem 2&lt;/font&gt;" style="text;html=1;align=center;verticalAlign=middle;whiteSpace=wrap;rounded=0;" vertex="1" parent="1">
          <mxGeometry x="1865" y="-860" width="372.5" height="120" as="geometry" />
        </mxCell>
        <mxCell id="CmxnrNPB1Q9Q9WEZojjF-146" style="edgeStyle=orthogonalEdgeStyle;rounded=0;orthogonalLoop=1;jettySize=auto;html=1;entryX=0;entryY=0.5;entryDx=0;entryDy=0;" edge="1" parent="1" source="CmxnrNPB1Q9Q9WEZojjF-108" target="CmxnrNPB1Q9Q9WEZojjF-145">
          <mxGeometry relative="1" as="geometry" />
        </mxCell>
        <mxCell id="CmxnrNPB1Q9Q9WEZojjF-157" style="edgeStyle=orthogonalEdgeStyle;rounded=0;orthogonalLoop=1;jettySize=auto;html=1;entryX=0.5;entryY=0;entryDx=0;entryDy=0;" edge="1" parent="1" source="CmxnrNPB1Q9Q9WEZojjF-108" target="CmxnrNPB1Q9Q9WEZojjF-156">
          <mxGeometry relative="1" as="geometry" />
        </mxCell>
        <mxCell id="CmxnrNPB1Q9Q9WEZojjF-167" style="edgeStyle=orthogonalEdgeStyle;rounded=0;orthogonalLoop=1;jettySize=auto;html=1;entryX=0;entryY=0.5;entryDx=0;entryDy=0;" edge="1" parent="1" source="CmxnrNPB1Q9Q9WEZojjF-108" target="CmxnrNPB1Q9Q9WEZojjF-162">
          <mxGeometry relative="1" as="geometry">
            <Array as="points">
              <mxPoint x="1930" y="-470" />
              <mxPoint x="1930" y="-380" />
            </Array>
          </mxGeometry>
        </mxCell>
        <mxCell id="CmxnrNPB1Q9Q9WEZojjF-108" value="musician" style="rounded=0;whiteSpace=wrap;html=1;" vertex="1" parent="1">
          <mxGeometry x="1735" y="-525" width="120" height="60" as="geometry" />
        </mxCell>
        <mxCell id="CmxnrNPB1Q9Q9WEZojjF-113" style="edgeStyle=orthogonalEdgeStyle;rounded=0;orthogonalLoop=1;jettySize=auto;html=1;entryX=0;entryY=0.25;entryDx=0;entryDy=0;" edge="1" parent="1" source="CmxnrNPB1Q9Q9WEZojjF-110" target="CmxnrNPB1Q9Q9WEZojjF-108">
          <mxGeometry relative="1" as="geometry" />
        </mxCell>
        <mxCell id="CmxnrNPB1Q9Q9WEZojjF-110" value="&lt;u&gt;Id&lt;/u&gt;" style="ellipse;whiteSpace=wrap;html=1;" vertex="1" parent="1">
          <mxGeometry x="1615" y="-560" width="60" height="40" as="geometry" />
        </mxCell>
        <mxCell id="CmxnrNPB1Q9Q9WEZojjF-114" style="edgeStyle=orthogonalEdgeStyle;rounded=0;orthogonalLoop=1;jettySize=auto;html=1;entryX=0;entryY=0.75;entryDx=0;entryDy=0;" edge="1" parent="1" source="CmxnrNPB1Q9Q9WEZojjF-111" target="CmxnrNPB1Q9Q9WEZojjF-108">
          <mxGeometry relative="1" as="geometry" />
        </mxCell>
        <mxCell id="CmxnrNPB1Q9Q9WEZojjF-111" value="Na&lt;span style=&quot;color: rgba(0, 0, 0, 0); font-family: monospace; font-size: 0px; text-align: start; text-wrap-mode: nowrap;&quot;&gt;%3CmxGraphModel%3E%3Croot%3E%3CmxCell%20id%3D%220%22%2F%3E%3CmxCell%20id%3D%221%22%20parent%3D%220%22%2F%3E%3CmxCell%20id%3D%222%22%20value%3D%22Id%22%20style%3D%22ellipse%3BwhiteSpace%3Dwrap%3Bhtml%3D1%3B%22%20vertex%3D%221%22%20parent%3D%221%22%3E%3CmxGeometry%20x%3D%221650%22%20y%3D%22155%22%20width%3D%2260%22%20height%3D%2240%22%20as%3D%22geometry%22%2F%3E%3C%2FmxCell%3E%3C%2Froot%3E%3C%2FmxGraphModel%3E&lt;/span&gt;me" style="ellipse;whiteSpace=wrap;html=1;" vertex="1" parent="1">
          <mxGeometry x="1605" y="-505" width="60" height="40" as="geometry" />
        </mxCell>
        <mxCell id="CmxnrNPB1Q9Q9WEZojjF-115" style="edgeStyle=orthogonalEdgeStyle;rounded=0;orthogonalLoop=1;jettySize=auto;html=1;entryX=0.202;entryY=0.02;entryDx=0;entryDy=0;entryPerimeter=0;" edge="1" parent="1" source="CmxnrNPB1Q9Q9WEZojjF-112" target="CmxnrNPB1Q9Q9WEZojjF-108">
          <mxGeometry relative="1" as="geometry">
            <mxPoint x="1775" y="-560" as="targetPoint" />
            <Array as="points">
              <mxPoint x="1759" y="-560" />
            </Array>
          </mxGeometry>
        </mxCell>
        <mxCell id="CmxnrNPB1Q9Q9WEZojjF-112" value="address" style="ellipse;whiteSpace=wrap;html=1;" vertex="1" parent="1">
          <mxGeometry x="1715" y="-580" width="60" height="40" as="geometry" />
        </mxCell>
        <mxCell id="CmxnrNPB1Q9Q9WEZojjF-119" style="edgeStyle=orthogonalEdgeStyle;rounded=0;orthogonalLoop=1;jettySize=auto;html=1;entryX=0;entryY=0.5;entryDx=0;entryDy=0;" edge="1" parent="1" source="CmxnrNPB1Q9Q9WEZojjF-116" target="CmxnrNPB1Q9Q9WEZojjF-112">
          <mxGeometry relative="1" as="geometry" />
        </mxCell>
        <mxCell id="CmxnrNPB1Q9Q9WEZojjF-116" value="city" style="ellipse;whiteSpace=wrap;html=1;" vertex="1" parent="1">
          <mxGeometry x="1625" y="-620" width="60" height="40" as="geometry" />
        </mxCell>
        <mxCell id="CmxnrNPB1Q9Q9WEZojjF-120" style="edgeStyle=orthogonalEdgeStyle;rounded=0;orthogonalLoop=1;jettySize=auto;html=1;entryX=0.5;entryY=0;entryDx=0;entryDy=0;" edge="1" parent="1" source="CmxnrNPB1Q9Q9WEZojjF-117" target="CmxnrNPB1Q9Q9WEZojjF-112">
          <mxGeometry relative="1" as="geometry" />
        </mxCell>
        <mxCell id="CmxnrNPB1Q9Q9WEZojjF-117" value="street" style="ellipse;whiteSpace=wrap;html=1;" vertex="1" parent="1">
          <mxGeometry x="1715" y="-650" width="60" height="40" as="geometry" />
        </mxCell>
        <mxCell id="CmxnrNPB1Q9Q9WEZojjF-121" value="Phone" style="ellipse;whiteSpace=wrap;html=1;" vertex="1" parent="1">
          <mxGeometry x="1795" y="-620" width="60" height="40" as="geometry" />
        </mxCell>
        <mxCell id="CmxnrNPB1Q9Q9WEZojjF-122" style="edgeStyle=orthogonalEdgeStyle;rounded=0;orthogonalLoop=1;jettySize=auto;html=1;entryX=0.823;entryY=0.066;entryDx=0;entryDy=0;entryPerimeter=0;" edge="1" parent="1" source="CmxnrNPB1Q9Q9WEZojjF-121" target="CmxnrNPB1Q9Q9WEZojjF-108">
          <mxGeometry relative="1" as="geometry" />
        </mxCell>
        <mxCell id="CmxnrNPB1Q9Q9WEZojjF-123" value="instrument" style="rounded=0;whiteSpace=wrap;html=1;" vertex="1" parent="1">
          <mxGeometry x="2195" y="-525" width="120" height="60" as="geometry" />
        </mxCell>
        <mxCell id="CmxnrNPB1Q9Q9WEZojjF-126" value="&lt;u&gt;Name&lt;/u&gt;" style="ellipse;whiteSpace=wrap;html=1;" vertex="1" parent="1">
          <mxGeometry x="2355" y="-515" width="60" height="45" as="geometry" />
        </mxCell>
        <mxCell id="CmxnrNPB1Q9Q9WEZojjF-127" value="key" style="ellipse;whiteSpace=wrap;html=1;" vertex="1" parent="1">
          <mxGeometry x="2265" y="-590" width="60" height="45" as="geometry" />
        </mxCell>
        <mxCell id="CmxnrNPB1Q9Q9WEZojjF-128" style="edgeStyle=orthogonalEdgeStyle;rounded=0;orthogonalLoop=1;jettySize=auto;html=1;entryX=1.024;entryY=0.606;entryDx=0;entryDy=0;entryPerimeter=0;" edge="1" parent="1" source="CmxnrNPB1Q9Q9WEZojjF-126" target="CmxnrNPB1Q9Q9WEZojjF-123">
          <mxGeometry relative="1" as="geometry" />
        </mxCell>
        <mxCell id="CmxnrNPB1Q9Q9WEZojjF-129" style="edgeStyle=orthogonalEdgeStyle;rounded=0;orthogonalLoop=1;jettySize=auto;html=1;entryX=0.833;entryY=0.083;entryDx=0;entryDy=0;entryPerimeter=0;" edge="1" parent="1" source="CmxnrNPB1Q9Q9WEZojjF-127" target="CmxnrNPB1Q9Q9WEZojjF-123">
          <mxGeometry relative="1" as="geometry" />
        </mxCell>
        <mxCell id="CmxnrNPB1Q9Q9WEZojjF-131" value="song" style="rounded=0;whiteSpace=wrap;html=1;" vertex="1" parent="1">
          <mxGeometry x="1730" y="-300" width="120" height="60" as="geometry" />
        </mxCell>
        <mxCell id="CmxnrNPB1Q9Q9WEZojjF-134" style="edgeStyle=orthogonalEdgeStyle;rounded=0;orthogonalLoop=1;jettySize=auto;html=1;" edge="1" parent="1" source="CmxnrNPB1Q9Q9WEZojjF-132" target="CmxnrNPB1Q9Q9WEZojjF-131">
          <mxGeometry relative="1" as="geometry" />
        </mxCell>
        <mxCell id="CmxnrNPB1Q9Q9WEZojjF-132" value="&lt;u&gt;title&lt;/u&gt;" style="ellipse;whiteSpace=wrap;html=1;" vertex="1" parent="1">
          <mxGeometry x="1640" y="-290" width="60" height="40" as="geometry" />
        </mxCell>
        <mxCell id="CmxnrNPB1Q9Q9WEZojjF-135" style="edgeStyle=orthogonalEdgeStyle;rounded=0;orthogonalLoop=1;jettySize=auto;html=1;entryX=0.5;entryY=1;entryDx=0;entryDy=0;" edge="1" parent="1" source="CmxnrNPB1Q9Q9WEZojjF-133" target="CmxnrNPB1Q9Q9WEZojjF-131">
          <mxGeometry relative="1" as="geometry" />
        </mxCell>
        <mxCell id="CmxnrNPB1Q9Q9WEZojjF-133" value="author" style="ellipse;whiteSpace=wrap;html=1;" vertex="1" parent="1">
          <mxGeometry x="1760" y="-210" width="60" height="40" as="geometry" />
        </mxCell>
        <mxCell id="CmxnrNPB1Q9Q9WEZojjF-152" style="edgeStyle=orthogonalEdgeStyle;rounded=0;orthogonalLoop=1;jettySize=auto;html=1;entryX=1;entryY=0.5;entryDx=0;entryDy=0;" edge="1" parent="1" source="CmxnrNPB1Q9Q9WEZojjF-136" target="CmxnrNPB1Q9Q9WEZojjF-150">
          <mxGeometry relative="1" as="geometry" />
        </mxCell>
        <mxCell id="CmxnrNPB1Q9Q9WEZojjF-136" value="album" style="rounded=0;whiteSpace=wrap;html=1;" vertex="1" parent="1">
          <mxGeometry x="2205" y="-300" width="120" height="60" as="geometry" />
        </mxCell>
        <mxCell id="CmxnrNPB1Q9Q9WEZojjF-139" value="&lt;u&gt;title&lt;/u&gt;" style="ellipse;whiteSpace=wrap;html=1;" vertex="1" parent="1">
          <mxGeometry x="2365" y="-310" width="60" height="40" as="geometry" />
        </mxCell>
        <mxCell id="CmxnrNPB1Q9Q9WEZojjF-140" style="edgeStyle=orthogonalEdgeStyle;rounded=0;orthogonalLoop=1;jettySize=auto;html=1;entryX=1.015;entryY=0.155;entryDx=0;entryDy=0;entryPerimeter=0;" edge="1" parent="1" source="CmxnrNPB1Q9Q9WEZojjF-139" target="CmxnrNPB1Q9Q9WEZojjF-136">
          <mxGeometry relative="1" as="geometry" />
        </mxCell>
        <mxCell id="CmxnrNPB1Q9Q9WEZojjF-141" value="copyright_date" style="ellipse;whiteSpace=wrap;html=1;" vertex="1" parent="1">
          <mxGeometry x="2365" y="-260" width="90" height="40" as="geometry" />
        </mxCell>
        <mxCell id="CmxnrNPB1Q9Q9WEZojjF-142" style="edgeStyle=orthogonalEdgeStyle;rounded=0;orthogonalLoop=1;jettySize=auto;html=1;entryX=1.032;entryY=0.879;entryDx=0;entryDy=0;entryPerimeter=0;" edge="1" parent="1" source="CmxnrNPB1Q9Q9WEZojjF-141" target="CmxnrNPB1Q9Q9WEZojjF-136">
          <mxGeometry relative="1" as="geometry" />
        </mxCell>
        <mxCell id="CmxnrNPB1Q9Q9WEZojjF-143" value="Identifier" style="ellipse;whiteSpace=wrap;html=1;" vertex="1" parent="1">
          <mxGeometry x="2295" y="-210" width="60" height="40" as="geometry" />
        </mxCell>
        <mxCell id="CmxnrNPB1Q9Q9WEZojjF-144" style="edgeStyle=orthogonalEdgeStyle;rounded=0;orthogonalLoop=1;jettySize=auto;html=1;entryX=0.854;entryY=0.994;entryDx=0;entryDy=0;entryPerimeter=0;" edge="1" parent="1" source="CmxnrNPB1Q9Q9WEZojjF-143" target="CmxnrNPB1Q9Q9WEZojjF-136">
          <mxGeometry relative="1" as="geometry" />
        </mxCell>
        <mxCell id="CmxnrNPB1Q9Q9WEZojjF-147" style="edgeStyle=orthogonalEdgeStyle;rounded=0;orthogonalLoop=1;jettySize=auto;html=1;entryX=0;entryY=0.5;entryDx=0;entryDy=0;" edge="1" parent="1" source="CmxnrNPB1Q9Q9WEZojjF-145" target="CmxnrNPB1Q9Q9WEZojjF-123">
          <mxGeometry relative="1" as="geometry" />
        </mxCell>
        <mxCell id="CmxnrNPB1Q9Q9WEZojjF-145" value="plays" style="rhombus;whiteSpace=wrap;html=1;" vertex="1" parent="1">
          <mxGeometry x="2005" y="-535" width="80" height="80" as="geometry" />
        </mxCell>
        <mxCell id="CmxnrNPB1Q9Q9WEZojjF-148" value="m" style="text;html=1;align=center;verticalAlign=middle;whiteSpace=wrap;rounded=0;" vertex="1" parent="1">
          <mxGeometry x="2145" y="-520" width="60" height="30" as="geometry" />
        </mxCell>
        <mxCell id="CmxnrNPB1Q9Q9WEZojjF-149" value="m" style="text;html=1;align=center;verticalAlign=middle;whiteSpace=wrap;rounded=0;" vertex="1" parent="1">
          <mxGeometry x="1835" y="-520" width="60" height="30" as="geometry" />
        </mxCell>
        <mxCell id="CmxnrNPB1Q9Q9WEZojjF-153" style="edgeStyle=orthogonalEdgeStyle;rounded=0;orthogonalLoop=1;jettySize=auto;html=1;" edge="1" parent="1" source="CmxnrNPB1Q9Q9WEZojjF-150" target="CmxnrNPB1Q9Q9WEZojjF-131">
          <mxGeometry relative="1" as="geometry" />
        </mxCell>
        <mxCell id="CmxnrNPB1Q9Q9WEZojjF-150" value="has" style="rhombus;whiteSpace=wrap;html=1;" vertex="1" parent="1">
          <mxGeometry x="2005" y="-310" width="80" height="80" as="geometry" />
        </mxCell>
        <mxCell id="CmxnrNPB1Q9Q9WEZojjF-154" value="m" style="text;html=1;align=center;verticalAlign=middle;whiteSpace=wrap;rounded=0;" vertex="1" parent="1">
          <mxGeometry x="1845" y="-295" width="60" height="30" as="geometry" />
        </mxCell>
        <mxCell id="CmxnrNPB1Q9Q9WEZojjF-155" value="1" style="text;html=1;align=center;verticalAlign=middle;whiteSpace=wrap;rounded=0;" vertex="1" parent="1">
          <mxGeometry x="2155" y="-295" width="60" height="30" as="geometry" />
        </mxCell>
        <mxCell id="CmxnrNPB1Q9Q9WEZojjF-156" value="performed" style="rhombus;whiteSpace=wrap;html=1;" vertex="1" parent="1">
          <mxGeometry x="1755" y="-430" width="80" height="80" as="geometry" />
        </mxCell>
        <mxCell id="CmxnrNPB1Q9Q9WEZojjF-158" style="edgeStyle=orthogonalEdgeStyle;rounded=0;orthogonalLoop=1;jettySize=auto;html=1;entryX=0.543;entryY=-0.029;entryDx=0;entryDy=0;entryPerimeter=0;" edge="1" parent="1" source="CmxnrNPB1Q9Q9WEZojjF-156" target="CmxnrNPB1Q9Q9WEZojjF-131">
          <mxGeometry relative="1" as="geometry" />
        </mxCell>
        <mxCell id="CmxnrNPB1Q9Q9WEZojjF-159" value="1" style="text;html=1;align=center;verticalAlign=middle;whiteSpace=wrap;rounded=0;" vertex="1" parent="1">
          <mxGeometry x="1785" y="-470" width="60" height="30" as="geometry" />
        </mxCell>
        <mxCell id="CmxnrNPB1Q9Q9WEZojjF-161" value="m" style="text;html=1;align=center;verticalAlign=middle;whiteSpace=wrap;rounded=0;" vertex="1" parent="1">
          <mxGeometry x="1785" y="-330" width="60" height="30" as="geometry" />
        </mxCell>
        <mxCell id="CmxnrNPB1Q9Q9WEZojjF-168" style="edgeStyle=orthogonalEdgeStyle;rounded=0;orthogonalLoop=1;jettySize=auto;html=1;entryX=0.5;entryY=0;entryDx=0;entryDy=0;" edge="1" parent="1" source="CmxnrNPB1Q9Q9WEZojjF-162" target="CmxnrNPB1Q9Q9WEZojjF-136">
          <mxGeometry relative="1" as="geometry" />
        </mxCell>
        <mxCell id="CmxnrNPB1Q9Q9WEZojjF-162" value="produce" style="rhombus;whiteSpace=wrap;html=1;" vertex="1" parent="1">
          <mxGeometry x="2005" y="-420" width="80" height="80" as="geometry" />
        </mxCell>
        <mxCell id="CmxnrNPB1Q9Q9WEZojjF-169" value="1" style="text;html=1;align=center;verticalAlign=middle;whiteSpace=wrap;rounded=0;" vertex="1" parent="1">
          <mxGeometry x="1835" y="-495" width="60" height="30" as="geometry" />
        </mxCell>
        <mxCell id="CmxnrNPB1Q9Q9WEZojjF-171" value="m" style="text;html=1;align=center;verticalAlign=middle;whiteSpace=wrap;rounded=0;" vertex="1" parent="1">
          <mxGeometry x="2245" y="-340" width="60" height="30" as="geometry" />
        </mxCell>
        <mxCell id="CmxnrNPB1Q9Q9WEZojjF-173" value="&lt;font style=&quot;font-size: 55px;&quot;&gt;problem 3&lt;/font&gt;" style="text;html=1;align=center;verticalAlign=middle;whiteSpace=wrap;rounded=0;" vertex="1" parent="1">
          <mxGeometry x="262.5" y="370" width="372.5" height="120" as="geometry" />
        </mxCell>
        <mxCell id="CmxnrNPB1Q9Q9WEZojjF-202" style="edgeStyle=orthogonalEdgeStyle;rounded=0;orthogonalLoop=1;jettySize=auto;html=1;entryX=0;entryY=0.5;entryDx=0;entryDy=0;" edge="1" parent="1" source="CmxnrNPB1Q9Q9WEZojjF-174" target="CmxnrNPB1Q9Q9WEZojjF-201">
          <mxGeometry relative="1" as="geometry" />
        </mxCell>
        <mxCell id="CmxnrNPB1Q9Q9WEZojjF-214" style="edgeStyle=orthogonalEdgeStyle;rounded=0;orthogonalLoop=1;jettySize=auto;html=1;" edge="1" parent="1" source="CmxnrNPB1Q9Q9WEZojjF-174" target="CmxnrNPB1Q9Q9WEZojjF-211">
          <mxGeometry relative="1" as="geometry" />
        </mxCell>
        <mxCell id="CmxnrNPB1Q9Q9WEZojjF-174" value="office" style="rounded=0;whiteSpace=wrap;html=1;" vertex="1" parent="1">
          <mxGeometry x="103" y="630" width="120" height="60" as="geometry" />
        </mxCell>
        <mxCell id="CmxnrNPB1Q9Q9WEZojjF-175" value="&lt;u&gt;Office_id&lt;/u&gt;" style="ellipse;whiteSpace=wrap;html=1;" vertex="1" parent="1">
          <mxGeometry x="7.5" y="620" width="65" height="40" as="geometry" />
        </mxCell>
        <mxCell id="CmxnrNPB1Q9Q9WEZojjF-176" value="Location" style="ellipse;whiteSpace=wrap;html=1;" vertex="1" parent="1">
          <mxGeometry x="12.5" y="670" width="60" height="40" as="geometry" />
        </mxCell>
        <mxCell id="CmxnrNPB1Q9Q9WEZojjF-177" style="edgeStyle=orthogonalEdgeStyle;rounded=0;orthogonalLoop=1;jettySize=auto;html=1;entryX=0.007;entryY=0.385;entryDx=0;entryDy=0;entryPerimeter=0;" edge="1" parent="1" source="CmxnrNPB1Q9Q9WEZojjF-175" target="CmxnrNPB1Q9Q9WEZojjF-174">
          <mxGeometry relative="1" as="geometry" />
        </mxCell>
        <mxCell id="CmxnrNPB1Q9Q9WEZojjF-178" style="edgeStyle=orthogonalEdgeStyle;rounded=0;orthogonalLoop=1;jettySize=auto;html=1;entryX=0.002;entryY=0.649;entryDx=0;entryDy=0;entryPerimeter=0;" edge="1" parent="1" source="CmxnrNPB1Q9Q9WEZojjF-176" target="CmxnrNPB1Q9Q9WEZojjF-174">
          <mxGeometry relative="1" as="geometry" />
        </mxCell>
        <mxCell id="CmxnrNPB1Q9Q9WEZojjF-207" style="edgeStyle=orthogonalEdgeStyle;rounded=0;orthogonalLoop=1;jettySize=auto;html=1;entryX=1;entryY=0.5;entryDx=0;entryDy=0;" edge="1" parent="1" source="CmxnrNPB1Q9Q9WEZojjF-179" target="CmxnrNPB1Q9Q9WEZojjF-206">
          <mxGeometry relative="1" as="geometry">
            <Array as="points">
              <mxPoint x="650" y="550" />
            </Array>
          </mxGeometry>
        </mxCell>
        <mxCell id="CmxnrNPB1Q9Q9WEZojjF-179" value="employes" style="rounded=0;whiteSpace=wrap;html=1;" vertex="1" parent="1">
          <mxGeometry x="605" y="630" width="120" height="60" as="geometry" />
        </mxCell>
        <mxCell id="CmxnrNPB1Q9Q9WEZojjF-180" value="&lt;u&gt;Employee_id&lt;/u&gt;" style="ellipse;whiteSpace=wrap;html=1;" vertex="1" parent="1">
          <mxGeometry x="760" y="610" width="85" height="40" as="geometry" />
        </mxCell>
        <mxCell id="CmxnrNPB1Q9Q9WEZojjF-184" style="edgeStyle=orthogonalEdgeStyle;rounded=0;orthogonalLoop=1;jettySize=auto;html=1;entryX=1;entryY=0.75;entryDx=0;entryDy=0;" edge="1" parent="1" source="CmxnrNPB1Q9Q9WEZojjF-181" target="CmxnrNPB1Q9Q9WEZojjF-179">
          <mxGeometry relative="1" as="geometry" />
        </mxCell>
        <mxCell id="CmxnrNPB1Q9Q9WEZojjF-181" value="Name" style="ellipse;whiteSpace=wrap;html=1;" vertex="1" parent="1">
          <mxGeometry x="775" y="660" width="65" height="40" as="geometry" />
        </mxCell>
        <mxCell id="CmxnrNPB1Q9Q9WEZojjF-183" style="edgeStyle=orthogonalEdgeStyle;rounded=0;orthogonalLoop=1;jettySize=auto;html=1;entryX=0.979;entryY=0.351;entryDx=0;entryDy=0;entryPerimeter=0;" edge="1" parent="1" source="CmxnrNPB1Q9Q9WEZojjF-180" target="CmxnrNPB1Q9Q9WEZojjF-179">
          <mxGeometry relative="1" as="geometry" />
        </mxCell>
        <mxCell id="CmxnrNPB1Q9Q9WEZojjF-185" value="proberty" style="rounded=0;whiteSpace=wrap;html=1;" vertex="1" parent="1">
          <mxGeometry x="95" y="860" width="120" height="60" as="geometry" />
        </mxCell>
        <mxCell id="CmxnrNPB1Q9Q9WEZojjF-186" value="&lt;u&gt;Prob_id&lt;/u&gt;" style="ellipse;whiteSpace=wrap;html=1;" vertex="1" parent="1">
          <mxGeometry x="-22.5" y="840" width="65" height="40" as="geometry" />
        </mxCell>
        <mxCell id="CmxnrNPB1Q9Q9WEZojjF-190" style="edgeStyle=orthogonalEdgeStyle;rounded=0;orthogonalLoop=1;jettySize=auto;html=1;entryX=0.5;entryY=1;entryDx=0;entryDy=0;" edge="1" parent="1" source="CmxnrNPB1Q9Q9WEZojjF-187" target="CmxnrNPB1Q9Q9WEZojjF-185">
          <mxGeometry relative="1" as="geometry" />
        </mxCell>
        <mxCell id="CmxnrNPB1Q9Q9WEZojjF-187" value="location" style="ellipse;whiteSpace=wrap;html=1;" vertex="1" parent="1">
          <mxGeometry x="120.5" y="940" width="60" height="40" as="geometry" />
        </mxCell>
        <mxCell id="CmxnrNPB1Q9Q9WEZojjF-189" style="edgeStyle=orthogonalEdgeStyle;rounded=0;orthogonalLoop=1;jettySize=auto;html=1;entryX=-0.01;entryY=0.138;entryDx=0;entryDy=0;entryPerimeter=0;" edge="1" parent="1" source="CmxnrNPB1Q9Q9WEZojjF-186" target="CmxnrNPB1Q9Q9WEZojjF-185">
          <mxGeometry relative="1" as="geometry" />
        </mxCell>
        <mxCell id="CmxnrNPB1Q9Q9WEZojjF-194" style="edgeStyle=orthogonalEdgeStyle;rounded=0;orthogonalLoop=1;jettySize=auto;html=1;entryX=0;entryY=0.5;entryDx=0;entryDy=0;" edge="1" parent="1" source="CmxnrNPB1Q9Q9WEZojjF-191" target="CmxnrNPB1Q9Q9WEZojjF-187">
          <mxGeometry relative="1" as="geometry">
            <Array as="points">
              <mxPoint x="50.5" y="970" />
              <mxPoint x="100.5" y="970" />
              <mxPoint x="100.5" y="960" />
            </Array>
          </mxGeometry>
        </mxCell>
        <mxCell id="CmxnrNPB1Q9Q9WEZojjF-191" value="Address" style="ellipse;whiteSpace=wrap;html=1;" vertex="1" parent="1">
          <mxGeometry x="35" y="980" width="65" height="40" as="geometry" />
        </mxCell>
        <mxCell id="CmxnrNPB1Q9Q9WEZojjF-195" style="edgeStyle=orthogonalEdgeStyle;rounded=0;orthogonalLoop=1;jettySize=auto;html=1;entryX=0.5;entryY=1;entryDx=0;entryDy=0;" edge="1" parent="1" source="CmxnrNPB1Q9Q9WEZojjF-192" target="CmxnrNPB1Q9Q9WEZojjF-187">
          <mxGeometry relative="1" as="geometry" />
        </mxCell>
        <mxCell id="CmxnrNPB1Q9Q9WEZojjF-192" value="state" style="ellipse;whiteSpace=wrap;html=1;" vertex="1" parent="1">
          <mxGeometry x="118" y="1000" width="65" height="40" as="geometry" />
        </mxCell>
        <mxCell id="CmxnrNPB1Q9Q9WEZojjF-196" style="edgeStyle=orthogonalEdgeStyle;rounded=0;orthogonalLoop=1;jettySize=auto;html=1;entryX=1;entryY=0.5;entryDx=0;entryDy=0;" edge="1" parent="1" source="CmxnrNPB1Q9Q9WEZojjF-193" target="CmxnrNPB1Q9Q9WEZojjF-187">
          <mxGeometry relative="1" as="geometry">
            <Array as="points">
              <mxPoint x="242.5" y="980" />
              <mxPoint x="200.5" y="980" />
              <mxPoint x="200.5" y="960" />
            </Array>
          </mxGeometry>
        </mxCell>
        <mxCell id="CmxnrNPB1Q9Q9WEZojjF-193" value="Zip_code" style="ellipse;whiteSpace=wrap;html=1;" vertex="1" parent="1">
          <mxGeometry x="197.5" y="990" width="65" height="40" as="geometry" />
        </mxCell>
        <mxCell id="CmxnrNPB1Q9Q9WEZojjF-197" value="owners" style="rounded=0;whiteSpace=wrap;html=1;" vertex="1" parent="1">
          <mxGeometry x="610" y="870" width="120" height="60" as="geometry" />
        </mxCell>
        <mxCell id="CmxnrNPB1Q9Q9WEZojjF-198" value="&lt;u&gt;Owner_id&lt;/u&gt;" style="ellipse;whiteSpace=wrap;html=1;" vertex="1" parent="1">
          <mxGeometry x="605" y="960" width="60" height="40" as="geometry" />
        </mxCell>
        <mxCell id="CmxnrNPB1Q9Q9WEZojjF-199" value="Owner_name" style="ellipse;whiteSpace=wrap;html=1;" vertex="1" parent="1">
          <mxGeometry x="692.5" y="960" width="77.5" height="40" as="geometry" />
        </mxCell>
        <mxCell id="CmxnrNPB1Q9Q9WEZojjF-203" style="edgeStyle=orthogonalEdgeStyle;rounded=0;orthogonalLoop=1;jettySize=auto;html=1;entryX=0;entryY=0.5;entryDx=0;entryDy=0;" edge="1" parent="1" source="CmxnrNPB1Q9Q9WEZojjF-201" target="CmxnrNPB1Q9Q9WEZojjF-179">
          <mxGeometry relative="1" as="geometry" />
        </mxCell>
        <mxCell id="CmxnrNPB1Q9Q9WEZojjF-201" value="assigned" style="rhombus;whiteSpace=wrap;html=1;" vertex="1" parent="1">
          <mxGeometry x="400" y="620" width="80" height="80" as="geometry" />
        </mxCell>
        <mxCell id="CmxnrNPB1Q9Q9WEZojjF-204" value="m" style="text;html=1;align=center;verticalAlign=middle;whiteSpace=wrap;rounded=0;" vertex="1" parent="1">
          <mxGeometry x="550" y="630" width="60" height="30" as="geometry" />
        </mxCell>
        <mxCell id="CmxnrNPB1Q9Q9WEZojjF-205" value="1" style="text;html=1;align=center;verticalAlign=middle;whiteSpace=wrap;rounded=0;" vertex="1" parent="1">
          <mxGeometry x="215" y="630" width="60" height="30" as="geometry" />
        </mxCell>
        <mxCell id="CmxnrNPB1Q9Q9WEZojjF-208" style="edgeStyle=orthogonalEdgeStyle;rounded=0;orthogonalLoop=1;jettySize=auto;html=1;" edge="1" parent="1" source="CmxnrNPB1Q9Q9WEZojjF-206" target="CmxnrNPB1Q9Q9WEZojjF-174">
          <mxGeometry relative="1" as="geometry" />
        </mxCell>
        <mxCell id="CmxnrNPB1Q9Q9WEZojjF-206" value="manage" style="rhombus;whiteSpace=wrap;html=1;" vertex="1" parent="1">
          <mxGeometry x="400" y="510" width="80" height="80" as="geometry" />
        </mxCell>
        <mxCell id="CmxnrNPB1Q9Q9WEZojjF-209" value="1" style="text;html=1;align=center;verticalAlign=middle;whiteSpace=wrap;rounded=0;" vertex="1" parent="1">
          <mxGeometry x="120" y="600" width="60" height="30" as="geometry" />
        </mxCell>
        <mxCell id="CmxnrNPB1Q9Q9WEZojjF-210" value="1" style="text;html=1;align=center;verticalAlign=middle;whiteSpace=wrap;rounded=0;" vertex="1" parent="1">
          <mxGeometry x="635" y="600" width="60" height="30" as="geometry" />
        </mxCell>
        <mxCell id="CmxnrNPB1Q9Q9WEZojjF-211" value="list" style="rhombus;whiteSpace=wrap;html=1;" vertex="1" parent="1">
          <mxGeometry x="120.5" y="730" width="80" height="80" as="geometry" />
        </mxCell>
        <mxCell id="CmxnrNPB1Q9Q9WEZojjF-212" style="edgeStyle=orthogonalEdgeStyle;rounded=0;orthogonalLoop=1;jettySize=auto;html=1;entryX=0.211;entryY=1;entryDx=0;entryDy=0;entryPerimeter=0;" edge="1" parent="1" source="CmxnrNPB1Q9Q9WEZojjF-198" target="CmxnrNPB1Q9Q9WEZojjF-197">
          <mxGeometry relative="1" as="geometry" />
        </mxCell>
        <mxCell id="CmxnrNPB1Q9Q9WEZojjF-213" style="edgeStyle=orthogonalEdgeStyle;rounded=0;orthogonalLoop=1;jettySize=auto;html=1;entryX=0.877;entryY=1.069;entryDx=0;entryDy=0;entryPerimeter=0;" edge="1" parent="1" source="CmxnrNPB1Q9Q9WEZojjF-199" target="CmxnrNPB1Q9Q9WEZojjF-197">
          <mxGeometry relative="1" as="geometry" />
        </mxCell>
        <mxCell id="CmxnrNPB1Q9Q9WEZojjF-215" style="edgeStyle=orthogonalEdgeStyle;rounded=0;orthogonalLoop=1;jettySize=auto;html=1;entryX=0.574;entryY=-0.023;entryDx=0;entryDy=0;entryPerimeter=0;" edge="1" parent="1" source="CmxnrNPB1Q9Q9WEZojjF-211" target="CmxnrNPB1Q9Q9WEZojjF-185">
          <mxGeometry relative="1" as="geometry" />
        </mxCell>
        <mxCell id="CmxnrNPB1Q9Q9WEZojjF-216" value="1" style="text;html=1;align=center;verticalAlign=middle;whiteSpace=wrap;rounded=0;" vertex="1" parent="1">
          <mxGeometry x="140.5" y="690" width="60" height="30" as="geometry" />
        </mxCell>
        <mxCell id="CmxnrNPB1Q9Q9WEZojjF-217" value="m" style="text;html=1;align=center;verticalAlign=middle;whiteSpace=wrap;rounded=0;" vertex="1" parent="1">
          <mxGeometry x="140.5" y="830" width="60" height="30" as="geometry" />
        </mxCell>
        <mxCell id="CmxnrNPB1Q9Q9WEZojjF-221" style="edgeStyle=orthogonalEdgeStyle;rounded=0;orthogonalLoop=1;jettySize=auto;html=1;entryX=0;entryY=0.5;entryDx=0;entryDy=0;" edge="1" parent="1" source="CmxnrNPB1Q9Q9WEZojjF-218" target="CmxnrNPB1Q9Q9WEZojjF-197">
          <mxGeometry relative="1" as="geometry" />
        </mxCell>
        <mxCell id="CmxnrNPB1Q9Q9WEZojjF-218" value="have" style="rhombus;whiteSpace=wrap;html=1;" vertex="1" parent="1">
          <mxGeometry x="385" y="850" width="80" height="80" as="geometry" />
        </mxCell>
        <mxCell id="CmxnrNPB1Q9Q9WEZojjF-220" style="edgeStyle=orthogonalEdgeStyle;rounded=0;orthogonalLoop=1;jettySize=auto;html=1;entryX=0.059;entryY=0.539;entryDx=0;entryDy=0;entryPerimeter=0;" edge="1" parent="1" source="CmxnrNPB1Q9Q9WEZojjF-185" target="CmxnrNPB1Q9Q9WEZojjF-218">
          <mxGeometry relative="1" as="geometry" />
        </mxCell>
        <mxCell id="CmxnrNPB1Q9Q9WEZojjF-222" value="m" style="text;html=1;align=center;verticalAlign=middle;whiteSpace=wrap;rounded=0;" vertex="1" parent="1">
          <mxGeometry x="202.5" y="860" width="60" height="30" as="geometry" />
        </mxCell>
        <mxCell id="CmxnrNPB1Q9Q9WEZojjF-223" value="m" style="text;html=1;align=center;verticalAlign=middle;whiteSpace=wrap;rounded=0;" vertex="1" parent="1">
          <mxGeometry x="560" y="870" width="60" height="30" as="geometry" />
        </mxCell>
        <mxCell id="CmxnrNPB1Q9Q9WEZojjF-224" value="percent" style="ellipse;whiteSpace=wrap;html=1;" vertex="1" parent="1">
          <mxGeometry x="393" y="960" width="65" height="40" as="geometry" />
        </mxCell>
        <mxCell id="CmxnrNPB1Q9Q9WEZojjF-225" style="edgeStyle=orthogonalEdgeStyle;rounded=0;orthogonalLoop=1;jettySize=auto;html=1;entryX=0.473;entryY=0.935;entryDx=0;entryDy=0;entryPerimeter=0;" edge="1" parent="1" source="CmxnrNPB1Q9Q9WEZojjF-224" target="CmxnrNPB1Q9Q9WEZojjF-218">
          <mxGeometry relative="1" as="geometry" />
        </mxCell>
        <mxCell id="CmxnrNPB1Q9Q9WEZojjF-226" value="&lt;font style=&quot;font-size: 55px;&quot;&gt;problem 4&lt;/font&gt;" style="text;html=1;align=center;verticalAlign=middle;whiteSpace=wrap;rounded=0;" vertex="1" parent="1">
          <mxGeometry x="1820" y="370" width="372.5" height="120" as="geometry" />
        </mxCell>
        <mxCell id="CmxnrNPB1Q9Q9WEZojjF-262" style="edgeStyle=orthogonalEdgeStyle;rounded=0;orthogonalLoop=1;jettySize=auto;html=1;" edge="1" parent="1" source="CmxnrNPB1Q9Q9WEZojjF-227" target="CmxnrNPB1Q9Q9WEZojjF-261">
          <mxGeometry relative="1" as="geometry" />
        </mxCell>
        <mxCell id="CmxnrNPB1Q9Q9WEZojjF-276" style="edgeStyle=orthogonalEdgeStyle;rounded=0;orthogonalLoop=1;jettySize=auto;html=1;entryX=1;entryY=0.5;entryDx=0;entryDy=0;" edge="1" parent="1" source="CmxnrNPB1Q9Q9WEZojjF-227" target="CmxnrNPB1Q9Q9WEZojjF-275">
          <mxGeometry relative="1" as="geometry" />
        </mxCell>
        <mxCell id="CmxnrNPB1Q9Q9WEZojjF-227" value="wards" style="rounded=0;whiteSpace=wrap;html=1;" vertex="1" parent="1">
          <mxGeometry x="1765" y="630" width="120" height="60" as="geometry" />
        </mxCell>
        <mxCell id="CmxnrNPB1Q9Q9WEZojjF-228" value="&lt;u&gt;ward_id&lt;/u&gt;" style="ellipse;whiteSpace=wrap;html=1;" vertex="1" parent="1">
          <mxGeometry x="1685" y="580" width="60" height="40" as="geometry" />
        </mxCell>
        <mxCell id="CmxnrNPB1Q9Q9WEZojjF-229" value="Name" style="ellipse;whiteSpace=wrap;html=1;" vertex="1" parent="1">
          <mxGeometry x="1765" y="560" width="60" height="40" as="geometry" />
        </mxCell>
        <mxCell id="CmxnrNPB1Q9Q9WEZojjF-231" style="edgeStyle=orthogonalEdgeStyle;rounded=0;orthogonalLoop=1;jettySize=auto;html=1;entryX=-0.01;entryY=0.364;entryDx=0;entryDy=0;entryPerimeter=0;" edge="1" parent="1" source="CmxnrNPB1Q9Q9WEZojjF-228" target="CmxnrNPB1Q9Q9WEZojjF-227">
          <mxGeometry relative="1" as="geometry">
            <Array as="points">
              <mxPoint x="1720" y="640" />
              <mxPoint x="1764" y="640" />
            </Array>
          </mxGeometry>
        </mxCell>
        <mxCell id="CmxnrNPB1Q9Q9WEZojjF-232" style="edgeStyle=orthogonalEdgeStyle;rounded=0;orthogonalLoop=1;jettySize=auto;html=1;entryX=0.306;entryY=0.031;entryDx=0;entryDy=0;entryPerimeter=0;" edge="1" parent="1" source="CmxnrNPB1Q9Q9WEZojjF-229" target="CmxnrNPB1Q9Q9WEZojjF-227">
          <mxGeometry relative="1" as="geometry" />
        </mxCell>
        <mxCell id="CmxnrNPB1Q9Q9WEZojjF-267" style="edgeStyle=orthogonalEdgeStyle;rounded=0;orthogonalLoop=1;jettySize=auto;html=1;entryX=1;entryY=0.5;entryDx=0;entryDy=0;" edge="1" parent="1" source="CmxnrNPB1Q9Q9WEZojjF-233" target="CmxnrNPB1Q9Q9WEZojjF-266">
          <mxGeometry relative="1" as="geometry">
            <Array as="points">
              <mxPoint x="2250" y="810" />
            </Array>
          </mxGeometry>
        </mxCell>
        <mxCell id="CmxnrNPB1Q9Q9WEZojjF-285" style="edgeStyle=orthogonalEdgeStyle;rounded=0;orthogonalLoop=1;jettySize=auto;html=1;entryX=1;entryY=0.5;entryDx=0;entryDy=0;" edge="1" parent="1" source="CmxnrNPB1Q9Q9WEZojjF-233" target="CmxnrNPB1Q9Q9WEZojjF-282">
          <mxGeometry relative="1" as="geometry">
            <Array as="points">
              <mxPoint x="2210" y="770" />
              <mxPoint x="2040" y="770" />
              <mxPoint x="2040" y="830" />
            </Array>
          </mxGeometry>
        </mxCell>
        <mxCell id="CmxnrNPB1Q9Q9WEZojjF-233" value="patient" style="rounded=0;whiteSpace=wrap;html=1;" vertex="1" parent="1">
          <mxGeometry x="2195" y="630" width="120" height="60" as="geometry" />
        </mxCell>
        <mxCell id="CmxnrNPB1Q9Q9WEZojjF-234" value="Patient_id" style="ellipse;whiteSpace=wrap;html=1;" vertex="1" parent="1">
          <mxGeometry x="2295" y="550" width="60" height="40" as="geometry" />
        </mxCell>
        <mxCell id="CmxnrNPB1Q9Q9WEZojjF-235" style="edgeStyle=orthogonalEdgeStyle;rounded=0;orthogonalLoop=1;jettySize=auto;html=1;entryX=0.794;entryY=0.055;entryDx=0;entryDy=0;entryPerimeter=0;" edge="1" parent="1" source="CmxnrNPB1Q9Q9WEZojjF-234" target="CmxnrNPB1Q9Q9WEZojjF-233">
          <mxGeometry relative="1" as="geometry" />
        </mxCell>
        <mxCell id="CmxnrNPB1Q9Q9WEZojjF-236" value="name" style="ellipse;whiteSpace=wrap;html=1;" vertex="1" parent="1">
          <mxGeometry x="2390" y="590" width="65" height="40" as="geometry" />
        </mxCell>
        <mxCell id="CmxnrNPB1Q9Q9WEZojjF-237" style="edgeStyle=orthogonalEdgeStyle;rounded=0;orthogonalLoop=1;jettySize=auto;html=1;entryX=0.958;entryY=0.333;entryDx=0;entryDy=0;entryPerimeter=0;" edge="1" parent="1" source="CmxnrNPB1Q9Q9WEZojjF-236" target="CmxnrNPB1Q9Q9WEZojjF-233">
          <mxGeometry relative="1" as="geometry" />
        </mxCell>
        <mxCell id="CmxnrNPB1Q9Q9WEZojjF-238" value="Date_of_birth" style="ellipse;whiteSpace=wrap;html=1;" vertex="1" parent="1">
          <mxGeometry x="2390" y="650" width="85" height="40" as="geometry" />
        </mxCell>
        <mxCell id="CmxnrNPB1Q9Q9WEZojjF-239" style="edgeStyle=orthogonalEdgeStyle;rounded=0;orthogonalLoop=1;jettySize=auto;html=1;entryX=0.958;entryY=0.833;entryDx=0;entryDy=0;entryPerimeter=0;" edge="1" parent="1" source="CmxnrNPB1Q9Q9WEZojjF-238" target="CmxnrNPB1Q9Q9WEZojjF-233">
          <mxGeometry relative="1" as="geometry" />
        </mxCell>
        <mxCell id="CmxnrNPB1Q9Q9WEZojjF-240" value="consultant" style="rounded=0;whiteSpace=wrap;html=1;" vertex="1" parent="1">
          <mxGeometry x="2270" y="990" width="120" height="60" as="geometry" />
        </mxCell>
        <mxCell id="CmxnrNPB1Q9Q9WEZojjF-242" style="edgeStyle=orthogonalEdgeStyle;rounded=0;orthogonalLoop=1;jettySize=auto;html=1;entryX=0;entryY=0.5;entryDx=0;entryDy=0;" edge="1" parent="1" source="CmxnrNPB1Q9Q9WEZojjF-241" target="CmxnrNPB1Q9Q9WEZojjF-240">
          <mxGeometry relative="1" as="geometry" />
        </mxCell>
        <mxCell id="CmxnrNPB1Q9Q9WEZojjF-241" value="consultant_id" style="ellipse;whiteSpace=wrap;html=1;" vertex="1" parent="1">
          <mxGeometry x="2165" y="987.5" width="75" height="40" as="geometry" />
        </mxCell>
        <mxCell id="CmxnrNPB1Q9Q9WEZojjF-243" value="name" style="ellipse;whiteSpace=wrap;html=1;" vertex="1" parent="1">
          <mxGeometry x="2280" y="1087.5" width="60" height="40" as="geometry" />
        </mxCell>
        <mxCell id="CmxnrNPB1Q9Q9WEZojjF-244" style="edgeStyle=orthogonalEdgeStyle;rounded=0;orthogonalLoop=1;jettySize=auto;html=1;entryX=0.318;entryY=1.043;entryDx=0;entryDy=0;entryPerimeter=0;" edge="1" parent="1" source="CmxnrNPB1Q9Q9WEZojjF-243" target="CmxnrNPB1Q9Q9WEZojjF-240">
          <mxGeometry relative="1" as="geometry" />
        </mxCell>
        <mxCell id="CmxnrNPB1Q9Q9WEZojjF-283" style="edgeStyle=orthogonalEdgeStyle;rounded=0;orthogonalLoop=1;jettySize=auto;html=1;entryX=0;entryY=0.5;entryDx=0;entryDy=0;" edge="1" parent="1" source="CmxnrNPB1Q9Q9WEZojjF-245" target="CmxnrNPB1Q9Q9WEZojjF-282">
          <mxGeometry relative="1" as="geometry" />
        </mxCell>
        <mxCell id="CmxnrNPB1Q9Q9WEZojjF-245" value="nurse" style="rounded=0;whiteSpace=wrap;html=1;" vertex="1" parent="1">
          <mxGeometry x="1678" y="967.5" width="120" height="60" as="geometry" />
        </mxCell>
        <mxCell id="CmxnrNPB1Q9Q9WEZojjF-273" style="edgeStyle=orthogonalEdgeStyle;rounded=0;orthogonalLoop=1;jettySize=auto;html=1;entryX=0.25;entryY=0;entryDx=0;entryDy=0;" edge="1" parent="1" source="CmxnrNPB1Q9Q9WEZojjF-246" target="CmxnrNPB1Q9Q9WEZojjF-245">
          <mxGeometry relative="1" as="geometry" />
        </mxCell>
        <mxCell id="CmxnrNPB1Q9Q9WEZojjF-246" value="name" style="ellipse;whiteSpace=wrap;html=1;" vertex="1" parent="1">
          <mxGeometry x="1598" y="887.5" width="65" height="40" as="geometry" />
        </mxCell>
        <mxCell id="CmxnrNPB1Q9Q9WEZojjF-248" value="number" style="ellipse;whiteSpace=wrap;html=1;" vertex="1" parent="1">
          <mxGeometry x="1558" y="967.5" width="65" height="40" as="geometry" />
        </mxCell>
        <mxCell id="CmxnrNPB1Q9Q9WEZojjF-281" style="edgeStyle=orthogonalEdgeStyle;rounded=0;orthogonalLoop=1;jettySize=auto;html=1;entryX=0;entryY=0.75;entryDx=0;entryDy=0;" edge="1" parent="1" source="CmxnrNPB1Q9Q9WEZojjF-251" target="CmxnrNPB1Q9Q9WEZojjF-245">
          <mxGeometry relative="1" as="geometry" />
        </mxCell>
        <mxCell id="CmxnrNPB1Q9Q9WEZojjF-251" value="address" style="ellipse;whiteSpace=wrap;html=1;" vertex="1" parent="1">
          <mxGeometry x="1548" y="1047.5" width="67" height="40" as="geometry" />
        </mxCell>
        <mxCell id="CmxnrNPB1Q9Q9WEZojjF-284" style="edgeStyle=orthogonalEdgeStyle;rounded=0;orthogonalLoop=1;jettySize=auto;html=1;entryX=0.5;entryY=1;entryDx=0;entryDy=0;" edge="1" parent="1" source="CmxnrNPB1Q9Q9WEZojjF-253" target="CmxnrNPB1Q9Q9WEZojjF-282">
          <mxGeometry relative="1" as="geometry" />
        </mxCell>
        <mxCell id="CmxnrNPB1Q9Q9WEZojjF-253" value="drug" style="rounded=0;whiteSpace=wrap;html=1;" vertex="1" parent="1">
          <mxGeometry x="1957.81" y="990" width="120" height="60" as="geometry" />
        </mxCell>
        <mxCell id="CmxnrNPB1Q9Q9WEZojjF-257" style="edgeStyle=orthogonalEdgeStyle;rounded=0;orthogonalLoop=1;jettySize=auto;html=1;entryX=0.75;entryY=1;entryDx=0;entryDy=0;" edge="1" parent="1" source="CmxnrNPB1Q9Q9WEZojjF-254" target="CmxnrNPB1Q9Q9WEZojjF-253">
          <mxGeometry relative="1" as="geometry" />
        </mxCell>
        <mxCell id="CmxnrNPB1Q9Q9WEZojjF-254" value="code" style="ellipse;whiteSpace=wrap;html=1;" vertex="1" parent="1">
          <mxGeometry x="2052.81" y="1077.5" width="65" height="40" as="geometry" />
        </mxCell>
        <mxCell id="CmxnrNPB1Q9Q9WEZojjF-258" style="edgeStyle=orthogonalEdgeStyle;rounded=0;orthogonalLoop=1;jettySize=auto;html=1;" edge="1" parent="1" source="CmxnrNPB1Q9Q9WEZojjF-255" target="CmxnrNPB1Q9Q9WEZojjF-253">
          <mxGeometry relative="1" as="geometry" />
        </mxCell>
        <mxCell id="CmxnrNPB1Q9Q9WEZojjF-255" value="rdosage" style="ellipse;whiteSpace=wrap;html=1;" vertex="1" parent="1">
          <mxGeometry x="1977.81" y="1077.5" width="65" height="40" as="geometry" />
        </mxCell>
        <mxCell id="CmxnrNPB1Q9Q9WEZojjF-256" value="brand" style="ellipse;whiteSpace=wrap;html=1;" vertex="1" parent="1">
          <mxGeometry x="1899.06" y="1077.5" width="65" height="40" as="geometry" />
        </mxCell>
        <mxCell id="CmxnrNPB1Q9Q9WEZojjF-259" style="edgeStyle=orthogonalEdgeStyle;rounded=0;orthogonalLoop=1;jettySize=auto;html=1;entryX=0.194;entryY=1.031;entryDx=0;entryDy=0;entryPerimeter=0;" edge="1" parent="1" source="CmxnrNPB1Q9Q9WEZojjF-256" target="CmxnrNPB1Q9Q9WEZojjF-253">
          <mxGeometry relative="1" as="geometry">
            <Array as="points">
              <mxPoint x="1987.81" y="1067.5" />
            </Array>
          </mxGeometry>
        </mxCell>
        <mxCell id="CmxnrNPB1Q9Q9WEZojjF-260" value="" style="ellipse;whiteSpace=wrap;html=1;fillColor=none;" vertex="1" parent="1">
          <mxGeometry x="1894.69" y="1072.5" width="73.75" height="50" as="geometry" />
        </mxCell>
        <mxCell id="CmxnrNPB1Q9Q9WEZojjF-263" style="edgeStyle=orthogonalEdgeStyle;rounded=0;orthogonalLoop=1;jettySize=auto;html=1;entryX=0;entryY=0.5;entryDx=0;entryDy=0;" edge="1" parent="1" source="CmxnrNPB1Q9Q9WEZojjF-261" target="CmxnrNPB1Q9Q9WEZojjF-233">
          <mxGeometry relative="1" as="geometry" />
        </mxCell>
        <mxCell id="CmxnrNPB1Q9Q9WEZojjF-261" value="host" style="rhombus;whiteSpace=wrap;html=1;" vertex="1" parent="1">
          <mxGeometry x="2011.25" y="620" width="80" height="80" as="geometry" />
        </mxCell>
        <mxCell id="CmxnrNPB1Q9Q9WEZojjF-264" value="1" style="text;html=1;align=center;verticalAlign=middle;whiteSpace=wrap;rounded=0;" vertex="1" parent="1">
          <mxGeometry x="1870" y="630" width="60" height="30" as="geometry" />
        </mxCell>
        <mxCell id="CmxnrNPB1Q9Q9WEZojjF-265" value="m" style="text;html=1;align=center;verticalAlign=middle;whiteSpace=wrap;rounded=0;" vertex="1" parent="1">
          <mxGeometry x="2135" y="630" width="60" height="30" as="geometry" />
        </mxCell>
        <mxCell id="CmxnrNPB1Q9Q9WEZojjF-268" style="edgeStyle=orthogonalEdgeStyle;rounded=0;orthogonalLoop=1;jettySize=auto;html=1;entryX=0.5;entryY=0;entryDx=0;entryDy=0;" edge="1" parent="1" source="CmxnrNPB1Q9Q9WEZojjF-266" target="CmxnrNPB1Q9Q9WEZojjF-240">
          <mxGeometry relative="1" as="geometry" />
        </mxCell>
        <mxCell id="CmxnrNPB1Q9Q9WEZojjF-266" value="assigned" style="rhombus;whiteSpace=wrap;html=1;" vertex="1" parent="1">
          <mxGeometry x="2215" y="770" width="80" height="80" as="geometry" />
        </mxCell>
        <mxCell id="CmxnrNPB1Q9Q9WEZojjF-270" value="m" style="text;html=1;align=center;verticalAlign=middle;whiteSpace=wrap;rounded=0;" vertex="1" parent="1">
          <mxGeometry x="2315" y="960" width="60" height="30" as="geometry" />
        </mxCell>
        <mxCell id="CmxnrNPB1Q9Q9WEZojjF-271" value="m" style="text;html=1;align=center;verticalAlign=middle;whiteSpace=wrap;rounded=0;" vertex="1" parent="1">
          <mxGeometry x="2235" y="690" width="60" height="30" as="geometry" />
        </mxCell>
        <mxCell id="CmxnrNPB1Q9Q9WEZojjF-272" style="edgeStyle=orthogonalEdgeStyle;rounded=0;orthogonalLoop=1;jettySize=auto;html=1;entryX=0.025;entryY=0.367;entryDx=0;entryDy=0;entryPerimeter=0;" edge="1" parent="1" source="CmxnrNPB1Q9Q9WEZojjF-248" target="CmxnrNPB1Q9Q9WEZojjF-245">
          <mxGeometry relative="1" as="geometry" />
        </mxCell>
        <mxCell id="CmxnrNPB1Q9Q9WEZojjF-277" style="edgeStyle=orthogonalEdgeStyle;rounded=0;orthogonalLoop=1;jettySize=auto;html=1;" edge="1" parent="1" source="CmxnrNPB1Q9Q9WEZojjF-275" target="CmxnrNPB1Q9Q9WEZojjF-245">
          <mxGeometry relative="1" as="geometry" />
        </mxCell>
        <mxCell id="CmxnrNPB1Q9Q9WEZojjF-275" value="supervision" style="rhombus;whiteSpace=wrap;html=1;" vertex="1" parent="1">
          <mxGeometry x="1715" y="730" width="80" height="80" as="geometry" />
        </mxCell>
        <mxCell id="CmxnrNPB1Q9Q9WEZojjF-278" value="1" style="text;html=1;align=center;verticalAlign=middle;whiteSpace=wrap;rounded=0;" vertex="1" parent="1">
          <mxGeometry x="1718" y="930" width="60" height="30" as="geometry" />
        </mxCell>
        <mxCell id="CmxnrNPB1Q9Q9WEZojjF-279" value="1" style="text;html=1;align=center;verticalAlign=middle;whiteSpace=wrap;rounded=0;" vertex="1" parent="1">
          <mxGeometry x="1810" y="690" width="60" height="30" as="geometry" />
        </mxCell>
        <mxCell id="CmxnrNPB1Q9Q9WEZojjF-282" value="record" style="rhombus;whiteSpace=wrap;html=1;" vertex="1" parent="1">
          <mxGeometry x="1940" y="790" width="80" height="80" as="geometry" />
        </mxCell>
        <mxCell id="CmxnrNPB1Q9Q9WEZojjF-287" value="m" style="text;html=1;align=center;verticalAlign=middle;whiteSpace=wrap;rounded=0;" vertex="1" parent="1">
          <mxGeometry x="2005" y="830" width="60" height="30" as="geometry" />
        </mxCell>
        <mxCell id="CmxnrNPB1Q9Q9WEZojjF-288" value="m" style="text;html=1;align=center;verticalAlign=middle;whiteSpace=wrap;rounded=0;" vertex="1" parent="1">
          <mxGeometry x="1885" y="800" width="60" height="30" as="geometry" />
        </mxCell>
        <mxCell id="CmxnrNPB1Q9Q9WEZojjF-289" value="m" style="text;html=1;align=center;verticalAlign=middle;whiteSpace=wrap;rounded=0;" vertex="1" parent="1">
          <mxGeometry x="2172.5" y="700" width="60" height="30" as="geometry" />
        </mxCell>
        <mxCell id="CmxnrNPB1Q9Q9WEZojjF-290" value="m" style="text;html=1;align=center;verticalAlign=middle;whiteSpace=wrap;rounded=0;" vertex="1" parent="1">
          <mxGeometry x="1798" y="995" width="60" height="30" as="geometry" />
        </mxCell>
        <mxCell id="CmxnrNPB1Q9Q9WEZojjF-291" value="m" style="text;html=1;align=center;verticalAlign=middle;whiteSpace=wrap;rounded=0;" vertex="1" parent="1">
          <mxGeometry x="1968.44" y="870" width="60" height="30" as="geometry" />
        </mxCell>
        <mxCell id="CmxnrNPB1Q9Q9WEZojjF-292" value="m" style="text;html=1;align=center;verticalAlign=middle;whiteSpace=wrap;rounded=0;" vertex="1" parent="1">
          <mxGeometry x="2005" y="950" width="60" height="30" as="geometry" />
        </mxCell>
        <mxCell id="CmxnrNPB1Q9Q9WEZojjF-293" value="&lt;font style=&quot;font-size: 55px;&quot;&gt;problem 5&lt;/font&gt;" style="text;html=1;align=center;verticalAlign=middle;whiteSpace=wrap;rounded=0;" vertex="1" parent="1">
          <mxGeometry x="237.5" y="1430" width="372.5" height="120" as="geometry" />
        </mxCell>
        <mxCell id="CmxnrNPB1Q9Q9WEZojjF-422" style="edgeStyle=orthogonalEdgeStyle;rounded=0;orthogonalLoop=1;jettySize=auto;html=1;entryX=0;entryY=0.5;entryDx=0;entryDy=0;" edge="1" parent="1" source="CmxnrNPB1Q9Q9WEZojjF-294" target="CmxnrNPB1Q9Q9WEZojjF-421">
          <mxGeometry relative="1" as="geometry" />
        </mxCell>
        <mxCell id="CmxnrNPB1Q9Q9WEZojjF-430" style="edgeStyle=orthogonalEdgeStyle;rounded=0;orthogonalLoop=1;jettySize=auto;html=1;entryX=0.5;entryY=0;entryDx=0;entryDy=0;" edge="1" parent="1" source="CmxnrNPB1Q9Q9WEZojjF-294" target="CmxnrNPB1Q9Q9WEZojjF-428">
          <mxGeometry relative="1" as="geometry" />
        </mxCell>
        <mxCell id="CmxnrNPB1Q9Q9WEZojjF-294" value="airline" style="rounded=0;whiteSpace=wrap;html=1;" vertex="1" parent="1">
          <mxGeometry x="140.5" y="1730" width="120" height="60" as="geometry" />
        </mxCell>
        <mxCell id="CmxnrNPB1Q9Q9WEZojjF-295" value="id" style="ellipse;whiteSpace=wrap;html=1;" vertex="1" parent="1">
          <mxGeometry x="133" y="1660" width="60" height="40" as="geometry" />
        </mxCell>
        <mxCell id="CmxnrNPB1Q9Q9WEZojjF-296" value="Name" style="ellipse;whiteSpace=wrap;html=1;" vertex="1" parent="1">
          <mxGeometry x="52.5" y="1680" width="60" height="40" as="geometry" />
        </mxCell>
        <mxCell id="CmxnrNPB1Q9Q9WEZojjF-304" style="edgeStyle=orthogonalEdgeStyle;rounded=0;orthogonalLoop=1;jettySize=auto;html=1;entryX=0.75;entryY=0;entryDx=0;entryDy=0;" edge="1" parent="1" source="CmxnrNPB1Q9Q9WEZojjF-297" target="CmxnrNPB1Q9Q9WEZojjF-294">
          <mxGeometry relative="1" as="geometry" />
        </mxCell>
        <mxCell id="CmxnrNPB1Q9Q9WEZojjF-297" value="Address" style="ellipse;whiteSpace=wrap;html=1;" vertex="1" parent="1">
          <mxGeometry x="200.5" y="1660" width="60" height="40" as="geometry" />
        </mxCell>
        <mxCell id="CmxnrNPB1Q9Q9WEZojjF-298" value="noc" style="ellipse;whiteSpace=wrap;html=1;" vertex="1" parent="1">
          <mxGeometry x="43" y="1730" width="60" height="40" as="geometry" />
        </mxCell>
        <mxCell id="CmxnrNPB1Q9Q9WEZojjF-299" value="tele_numbers" style="ellipse;whiteSpace=wrap;html=1;" vertex="1" parent="1">
          <mxGeometry x="17.5" y="1780" width="85" height="40" as="geometry" />
        </mxCell>
        <mxCell id="CmxnrNPB1Q9Q9WEZojjF-300" style="edgeStyle=orthogonalEdgeStyle;rounded=0;orthogonalLoop=1;jettySize=auto;html=1;entryX=-0.002;entryY=0.657;entryDx=0;entryDy=0;entryPerimeter=0;" edge="1" parent="1" source="CmxnrNPB1Q9Q9WEZojjF-299" target="CmxnrNPB1Q9Q9WEZojjF-294">
          <mxGeometry relative="1" as="geometry">
            <Array as="points">
              <mxPoint x="140" y="1790" />
            </Array>
          </mxGeometry>
        </mxCell>
        <mxCell id="CmxnrNPB1Q9Q9WEZojjF-301" style="edgeStyle=orthogonalEdgeStyle;rounded=0;orthogonalLoop=1;jettySize=auto;html=1;entryX=0.038;entryY=0.363;entryDx=0;entryDy=0;entryPerimeter=0;" edge="1" parent="1" source="CmxnrNPB1Q9Q9WEZojjF-298" target="CmxnrNPB1Q9Q9WEZojjF-294">
          <mxGeometry relative="1" as="geometry" />
        </mxCell>
        <mxCell id="CmxnrNPB1Q9Q9WEZojjF-302" style="edgeStyle=orthogonalEdgeStyle;rounded=0;orthogonalLoop=1;jettySize=auto;html=1;entryX=0.051;entryY=0.043;entryDx=0;entryDy=0;entryPerimeter=0;" edge="1" parent="1" source="CmxnrNPB1Q9Q9WEZojjF-296" target="CmxnrNPB1Q9Q9WEZojjF-294">
          <mxGeometry relative="1" as="geometry" />
        </mxCell>
        <mxCell id="CmxnrNPB1Q9Q9WEZojjF-303" style="edgeStyle=orthogonalEdgeStyle;rounded=0;orthogonalLoop=1;jettySize=auto;html=1;entryX=0.171;entryY=-0.01;entryDx=0;entryDy=0;entryPerimeter=0;" edge="1" parent="1" source="CmxnrNPB1Q9Q9WEZojjF-295" target="CmxnrNPB1Q9Q9WEZojjF-294">
          <mxGeometry relative="1" as="geometry" />
        </mxCell>
        <mxCell id="CmxnrNPB1Q9Q9WEZojjF-306" value="employee" style="rounded=0;whiteSpace=wrap;html=1;" vertex="1" parent="1">
          <mxGeometry x="692.5" y="1740" width="120" height="60" as="geometry" />
        </mxCell>
        <mxCell id="CmxnrNPB1Q9Q9WEZojjF-307" value="e_id" style="ellipse;whiteSpace=wrap;html=1;" vertex="1" parent="1">
          <mxGeometry x="665" y="1680" width="60" height="40" as="geometry" />
        </mxCell>
        <mxCell id="CmxnrNPB1Q9Q9WEZojjF-315" style="edgeStyle=orthogonalEdgeStyle;rounded=0;orthogonalLoop=1;jettySize=auto;html=1;entryX=0.75;entryY=0;entryDx=0;entryDy=0;" edge="1" parent="1" source="CmxnrNPB1Q9Q9WEZojjF-308" target="CmxnrNPB1Q9Q9WEZojjF-306">
          <mxGeometry relative="1" as="geometry" />
        </mxCell>
        <mxCell id="CmxnrNPB1Q9Q9WEZojjF-308" value="Name" style="ellipse;whiteSpace=wrap;html=1;" vertex="1" parent="1">
          <mxGeometry x="740" y="1680" width="60" height="40" as="geometry" />
        </mxCell>
        <mxCell id="CmxnrNPB1Q9Q9WEZojjF-309" value="address" style="ellipse;whiteSpace=wrap;html=1;" vertex="1" parent="1">
          <mxGeometry x="780" y="1640" width="60" height="40" as="geometry" />
        </mxCell>
        <mxCell id="CmxnrNPB1Q9Q9WEZojjF-317" style="edgeStyle=orthogonalEdgeStyle;rounded=0;orthogonalLoop=1;jettySize=auto;html=1;" edge="1" parent="1" source="CmxnrNPB1Q9Q9WEZojjF-310" target="CmxnrNPB1Q9Q9WEZojjF-306">
          <mxGeometry relative="1" as="geometry" />
        </mxCell>
        <mxCell id="CmxnrNPB1Q9Q9WEZojjF-310" value="birthday" style="ellipse;whiteSpace=wrap;html=1;" vertex="1" parent="1">
          <mxGeometry x="840" y="1720" width="60" height="40" as="geometry" />
        </mxCell>
        <mxCell id="CmxnrNPB1Q9Q9WEZojjF-316" style="edgeStyle=orthogonalEdgeStyle;rounded=0;orthogonalLoop=1;jettySize=auto;html=1;entryX=0.938;entryY=-0.057;entryDx=0;entryDy=0;entryPerimeter=0;" edge="1" parent="1" source="CmxnrNPB1Q9Q9WEZojjF-309" target="CmxnrNPB1Q9Q9WEZojjF-306">
          <mxGeometry relative="1" as="geometry" />
        </mxCell>
        <mxCell id="CmxnrNPB1Q9Q9WEZojjF-324" style="edgeStyle=orthogonalEdgeStyle;rounded=0;orthogonalLoop=1;jettySize=auto;html=1;entryX=1;entryY=0.5;entryDx=0;entryDy=0;" edge="1" parent="1" source="CmxnrNPB1Q9Q9WEZojjF-318" target="CmxnrNPB1Q9Q9WEZojjF-310">
          <mxGeometry relative="1" as="geometry" />
        </mxCell>
        <mxCell id="CmxnrNPB1Q9Q9WEZojjF-318" value="year" style="ellipse;whiteSpace=wrap;html=1;" vertex="1" parent="1">
          <mxGeometry x="965" y="1770" width="60" height="40" as="geometry" />
        </mxCell>
        <mxCell id="CmxnrNPB1Q9Q9WEZojjF-323" style="edgeStyle=orthogonalEdgeStyle;rounded=0;orthogonalLoop=1;jettySize=auto;html=1;" edge="1" parent="1" source="CmxnrNPB1Q9Q9WEZojjF-319" target="CmxnrNPB1Q9Q9WEZojjF-310">
          <mxGeometry relative="1" as="geometry" />
        </mxCell>
        <mxCell id="CmxnrNPB1Q9Q9WEZojjF-319" value="month" style="ellipse;whiteSpace=wrap;html=1;" vertex="1" parent="1">
          <mxGeometry x="965" y="1720" width="60" height="40" as="geometry" />
        </mxCell>
        <mxCell id="CmxnrNPB1Q9Q9WEZojjF-322" style="edgeStyle=orthogonalEdgeStyle;rounded=0;orthogonalLoop=1;jettySize=auto;html=1;entryX=1;entryY=0.5;entryDx=0;entryDy=0;" edge="1" parent="1" source="CmxnrNPB1Q9Q9WEZojjF-320" target="CmxnrNPB1Q9Q9WEZojjF-310">
          <mxGeometry relative="1" as="geometry" />
        </mxCell>
        <mxCell id="CmxnrNPB1Q9Q9WEZojjF-320" value="day" style="ellipse;whiteSpace=wrap;html=1;" vertex="1" parent="1">
          <mxGeometry x="965" y="1670" width="60" height="40" as="geometry" />
        </mxCell>
        <mxCell id="CmxnrNPB1Q9Q9WEZojjF-326" value="gender" style="ellipse;whiteSpace=wrap;html=1;" vertex="1" parent="1">
          <mxGeometry x="830" y="1820" width="60" height="40" as="geometry" />
        </mxCell>
        <mxCell id="CmxnrNPB1Q9Q9WEZojjF-327" value="postion" style="ellipse;whiteSpace=wrap;html=1;" vertex="1" parent="1">
          <mxGeometry x="701.25" y="1640" width="60" height="40" as="geometry" />
        </mxCell>
        <mxCell id="CmxnrNPB1Q9Q9WEZojjF-328" value="qual" style="ellipse;whiteSpace=wrap;html=1;" vertex="1" parent="1">
          <mxGeometry x="865" y="1760" width="60" height="40" as="geometry" />
        </mxCell>
        <mxCell id="CmxnrNPB1Q9Q9WEZojjF-330" style="edgeStyle=orthogonalEdgeStyle;rounded=0;orthogonalLoop=1;jettySize=auto;html=1;entryX=0.971;entryY=0.677;entryDx=0;entryDy=0;entryPerimeter=0;" edge="1" parent="1" source="CmxnrNPB1Q9Q9WEZojjF-328" target="CmxnrNPB1Q9Q9WEZojjF-306">
          <mxGeometry relative="1" as="geometry" />
        </mxCell>
        <mxCell id="CmxnrNPB1Q9Q9WEZojjF-331" style="edgeStyle=orthogonalEdgeStyle;rounded=0;orthogonalLoop=1;jettySize=auto;html=1;entryX=1.004;entryY=0.863;entryDx=0;entryDy=0;entryPerimeter=0;" edge="1" parent="1" source="CmxnrNPB1Q9Q9WEZojjF-326" target="CmxnrNPB1Q9Q9WEZojjF-306">
          <mxGeometry relative="1" as="geometry">
            <Array as="points">
              <mxPoint x="850" y="1800" />
              <mxPoint x="833" y="1800" />
              <mxPoint x="833" y="1792" />
            </Array>
          </mxGeometry>
        </mxCell>
        <mxCell id="CmxnrNPB1Q9Q9WEZojjF-332" style="edgeStyle=orthogonalEdgeStyle;rounded=0;orthogonalLoop=1;jettySize=auto;html=1;entryX=0.318;entryY=-0.017;entryDx=0;entryDy=0;entryPerimeter=0;" edge="1" parent="1" source="CmxnrNPB1Q9Q9WEZojjF-327" target="CmxnrNPB1Q9Q9WEZojjF-306">
          <mxGeometry relative="1" as="geometry" />
        </mxCell>
        <mxCell id="CmxnrNPB1Q9Q9WEZojjF-333" style="edgeStyle=orthogonalEdgeStyle;rounded=0;orthogonalLoop=1;jettySize=auto;html=1;entryX=0.018;entryY=0.09;entryDx=0;entryDy=0;entryPerimeter=0;" edge="1" parent="1" source="CmxnrNPB1Q9Q9WEZojjF-307" target="CmxnrNPB1Q9Q9WEZojjF-306">
          <mxGeometry relative="1" as="geometry" />
        </mxCell>
        <mxCell id="CmxnrNPB1Q9Q9WEZojjF-410" style="edgeStyle=orthogonalEdgeStyle;rounded=0;orthogonalLoop=1;jettySize=auto;html=1;entryX=0;entryY=0.5;entryDx=0;entryDy=0;" edge="1" parent="1" source="CmxnrNPB1Q9Q9WEZojjF-336" target="CmxnrNPB1Q9Q9WEZojjF-409">
          <mxGeometry relative="1" as="geometry" />
        </mxCell>
        <mxCell id="CmxnrNPB1Q9Q9WEZojjF-336" value="aircraft" style="rounded=0;whiteSpace=wrap;html=1;" vertex="1" parent="1">
          <mxGeometry x="136.75" y="2160" width="120" height="60" as="geometry" />
        </mxCell>
        <mxCell id="CmxnrNPB1Q9Q9WEZojjF-344" style="edgeStyle=orthogonalEdgeStyle;rounded=0;orthogonalLoop=1;jettySize=auto;html=1;" edge="1" parent="1" source="CmxnrNPB1Q9Q9WEZojjF-337" target="CmxnrNPB1Q9Q9WEZojjF-336">
          <mxGeometry relative="1" as="geometry" />
        </mxCell>
        <mxCell id="CmxnrNPB1Q9Q9WEZojjF-337" value="id" style="ellipse;whiteSpace=wrap;html=1;" vertex="1" parent="1">
          <mxGeometry x="44.25" y="2150" width="65" height="40" as="geometry" />
        </mxCell>
        <mxCell id="CmxnrNPB1Q9Q9WEZojjF-343" style="edgeStyle=orthogonalEdgeStyle;rounded=0;orthogonalLoop=1;jettySize=auto;html=1;entryX=0;entryY=0.75;entryDx=0;entryDy=0;" edge="1" parent="1" source="CmxnrNPB1Q9Q9WEZojjF-338" target="CmxnrNPB1Q9Q9WEZojjF-336">
          <mxGeometry relative="1" as="geometry">
            <Array as="points">
              <mxPoint x="132.25" y="2210" />
              <mxPoint x="132.25" y="2205" />
            </Array>
          </mxGeometry>
        </mxCell>
        <mxCell id="CmxnrNPB1Q9Q9WEZojjF-338" value="capacity" style="ellipse;whiteSpace=wrap;html=1;" vertex="1" parent="1">
          <mxGeometry x="47.25" y="2210" width="65" height="40" as="geometry" />
        </mxCell>
        <mxCell id="CmxnrNPB1Q9Q9WEZojjF-339" value="model" style="ellipse;whiteSpace=wrap;html=1;" vertex="1" parent="1">
          <mxGeometry x="129.75" y="2250" width="65" height="40" as="geometry" />
        </mxCell>
        <mxCell id="CmxnrNPB1Q9Q9WEZojjF-342" style="edgeStyle=orthogonalEdgeStyle;rounded=0;orthogonalLoop=1;jettySize=auto;html=1;entryX=0.088;entryY=0.997;entryDx=0;entryDy=0;entryPerimeter=0;" edge="1" parent="1" source="CmxnrNPB1Q9Q9WEZojjF-339" target="CmxnrNPB1Q9Q9WEZojjF-336">
          <mxGeometry relative="1" as="geometry" />
        </mxCell>
        <mxCell id="CmxnrNPB1Q9Q9WEZojjF-345" value="route" style="rounded=0;whiteSpace=wrap;html=1;" vertex="1" parent="1">
          <mxGeometry x="683.13" y="2150" width="120" height="60" as="geometry" />
        </mxCell>
        <mxCell id="CmxnrNPB1Q9Q9WEZojjF-347" value="id" style="ellipse;whiteSpace=wrap;html=1;" vertex="1" parent="1">
          <mxGeometry x="863.13" y="2190" width="65" height="40" as="geometry" />
        </mxCell>
        <mxCell id="CmxnrNPB1Q9Q9WEZojjF-348" value="origin" style="ellipse;whiteSpace=wrap;html=1;" vertex="1" parent="1">
          <mxGeometry x="780.63" y="2260" width="65" height="40" as="geometry" />
        </mxCell>
        <mxCell id="CmxnrNPB1Q9Q9WEZojjF-349" value="destination" style="ellipse;whiteSpace=wrap;html=1;" vertex="1" parent="1">
          <mxGeometry x="878.13" y="2140" width="65" height="40" as="geometry" />
        </mxCell>
        <mxCell id="CmxnrNPB1Q9Q9WEZojjF-356" style="edgeStyle=orthogonalEdgeStyle;rounded=0;orthogonalLoop=1;jettySize=auto;html=1;entryX=1;entryY=0.25;entryDx=0;entryDy=0;" edge="1" parent="1" source="CmxnrNPB1Q9Q9WEZojjF-350" target="CmxnrNPB1Q9Q9WEZojjF-345">
          <mxGeometry relative="1" as="geometry">
            <Array as="points">
              <mxPoint x="828.13" y="2110" />
              <mxPoint x="828.13" y="2165" />
            </Array>
          </mxGeometry>
        </mxCell>
        <mxCell id="CmxnrNPB1Q9Q9WEZojjF-350" value="distance" style="ellipse;whiteSpace=wrap;html=1;" vertex="1" parent="1">
          <mxGeometry x="878.13" y="2090" width="65" height="40" as="geometry" />
        </mxCell>
        <mxCell id="CmxnrNPB1Q9Q9WEZojjF-352" style="edgeStyle=orthogonalEdgeStyle;rounded=0;orthogonalLoop=1;jettySize=auto;html=1;entryX=0.25;entryY=1;entryDx=0;entryDy=0;" edge="1" parent="1" source="CmxnrNPB1Q9Q9WEZojjF-351" target="CmxnrNPB1Q9Q9WEZojjF-345">
          <mxGeometry relative="1" as="geometry" />
        </mxCell>
        <mxCell id="CmxnrNPB1Q9Q9WEZojjF-351" value="classification" style="ellipse;whiteSpace=wrap;html=1;" vertex="1" parent="1">
          <mxGeometry x="676.88" y="2260" width="85" height="40" as="geometry" />
        </mxCell>
        <mxCell id="CmxnrNPB1Q9Q9WEZojjF-353" style="edgeStyle=orthogonalEdgeStyle;rounded=0;orthogonalLoop=1;jettySize=auto;html=1;entryX=0.623;entryY=1.003;entryDx=0;entryDy=0;entryPerimeter=0;" edge="1" parent="1" source="CmxnrNPB1Q9Q9WEZojjF-348" target="CmxnrNPB1Q9Q9WEZojjF-345">
          <mxGeometry relative="1" as="geometry" />
        </mxCell>
        <mxCell id="CmxnrNPB1Q9Q9WEZojjF-354" style="edgeStyle=orthogonalEdgeStyle;rounded=0;orthogonalLoop=1;jettySize=auto;html=1;entryX=0.997;entryY=0.857;entryDx=0;entryDy=0;entryPerimeter=0;" edge="1" parent="1" source="CmxnrNPB1Q9Q9WEZojjF-347" target="CmxnrNPB1Q9Q9WEZojjF-345">
          <mxGeometry relative="1" as="geometry" />
        </mxCell>
        <mxCell id="CmxnrNPB1Q9Q9WEZojjF-355" style="edgeStyle=orthogonalEdgeStyle;rounded=0;orthogonalLoop=1;jettySize=auto;html=1;entryX=0.983;entryY=0.657;entryDx=0;entryDy=0;entryPerimeter=0;" edge="1" parent="1" source="CmxnrNPB1Q9Q9WEZojjF-349" target="CmxnrNPB1Q9Q9WEZojjF-345">
          <mxGeometry relative="1" as="geometry" />
        </mxCell>
        <mxCell id="CmxnrNPB1Q9Q9WEZojjF-417" style="edgeStyle=orthogonalEdgeStyle;rounded=0;orthogonalLoop=1;jettySize=auto;html=1;entryX=1;entryY=0.5;entryDx=0;entryDy=0;" edge="1" parent="1" source="CmxnrNPB1Q9Q9WEZojjF-357" target="CmxnrNPB1Q9Q9WEZojjF-416">
          <mxGeometry relative="1" as="geometry" />
        </mxCell>
        <mxCell id="CmxnrNPB1Q9Q9WEZojjF-357" value="crew" style="rounded=0;whiteSpace=wrap;html=1;" vertex="1" parent="1">
          <mxGeometry x="695" y="1940" width="120" height="60" as="geometry" />
        </mxCell>
        <mxCell id="CmxnrNPB1Q9Q9WEZojjF-362" style="edgeStyle=orthogonalEdgeStyle;rounded=0;orthogonalLoop=1;jettySize=auto;html=1;" edge="1" parent="1" source="CmxnrNPB1Q9Q9WEZojjF-358" target="CmxnrNPB1Q9Q9WEZojjF-357">
          <mxGeometry relative="1" as="geometry" />
        </mxCell>
        <mxCell id="CmxnrNPB1Q9Q9WEZojjF-358" value="major_pilot" style="ellipse;whiteSpace=wrap;html=1;" vertex="1" parent="1">
          <mxGeometry x="855" y="1930" width="65" height="40" as="geometry" />
        </mxCell>
        <mxCell id="CmxnrNPB1Q9Q9WEZojjF-359" value="assistantp" style="ellipse;whiteSpace=wrap;html=1;" vertex="1" parent="1">
          <mxGeometry x="845.63" y="2000" width="65" height="40" as="geometry" />
        </mxCell>
        <mxCell id="CmxnrNPB1Q9Q9WEZojjF-363" style="edgeStyle=orthogonalEdgeStyle;rounded=0;orthogonalLoop=1;jettySize=auto;html=1;entryX=1;entryY=0.75;entryDx=0;entryDy=0;" edge="1" parent="1" source="CmxnrNPB1Q9Q9WEZojjF-360" target="CmxnrNPB1Q9Q9WEZojjF-357">
          <mxGeometry relative="1" as="geometry" />
        </mxCell>
        <mxCell id="CmxnrNPB1Q9Q9WEZojjF-360" value="host" style="ellipse;whiteSpace=wrap;html=1;" vertex="1" parent="1">
          <mxGeometry x="925" y="1970" width="65" height="40" as="geometry" />
        </mxCell>
        <mxCell id="CmxnrNPB1Q9Q9WEZojjF-361" style="edgeStyle=orthogonalEdgeStyle;rounded=0;orthogonalLoop=1;jettySize=auto;html=1;entryX=0.894;entryY=1.028;entryDx=0;entryDy=0;entryPerimeter=0;" edge="1" parent="1" source="CmxnrNPB1Q9Q9WEZojjF-359" target="CmxnrNPB1Q9Q9WEZojjF-357">
          <mxGeometry relative="1" as="geometry" />
        </mxCell>
        <mxCell id="CmxnrNPB1Q9Q9WEZojjF-371" style="edgeStyle=orthogonalEdgeStyle;rounded=0;orthogonalLoop=1;jettySize=auto;html=1;entryX=1;entryY=0.5;entryDx=0;entryDy=0;" edge="1" parent="1" source="CmxnrNPB1Q9Q9WEZojjF-365" target="CmxnrNPB1Q9Q9WEZojjF-360">
          <mxGeometry relative="1" as="geometry" />
        </mxCell>
        <mxCell id="CmxnrNPB1Q9Q9WEZojjF-365" value="2" style="ellipse;whiteSpace=wrap;html=1;" vertex="1" parent="1">
          <mxGeometry x="1020" y="1970" width="65" height="40" as="geometry" />
        </mxCell>
        <mxCell id="CmxnrNPB1Q9Q9WEZojjF-367" style="edgeStyle=orthogonalEdgeStyle;rounded=0;orthogonalLoop=1;jettySize=auto;html=1;entryX=0.5;entryY=0;entryDx=0;entryDy=0;" edge="1" parent="1" source="CmxnrNPB1Q9Q9WEZojjF-366" target="CmxnrNPB1Q9Q9WEZojjF-360">
          <mxGeometry relative="1" as="geometry" />
        </mxCell>
        <mxCell id="CmxnrNPB1Q9Q9WEZojjF-366" value="1" style="ellipse;whiteSpace=wrap;html=1;" vertex="1" parent="1">
          <mxGeometry x="1025" y="1920" width="65" height="40" as="geometry" />
        </mxCell>
        <mxCell id="CmxnrNPB1Q9Q9WEZojjF-372" value="transactions" style="rounded=0;whiteSpace=wrap;html=1;" vertex="1" parent="1">
          <mxGeometry x="-33.5" y="1920" width="120" height="60" as="geometry" />
        </mxCell>
        <mxCell id="CmxnrNPB1Q9Q9WEZojjF-380" style="edgeStyle=orthogonalEdgeStyle;rounded=0;orthogonalLoop=1;jettySize=auto;html=1;entryX=0;entryY=0.25;entryDx=0;entryDy=0;" edge="1" parent="1" source="CmxnrNPB1Q9Q9WEZojjF-373" target="CmxnrNPB1Q9Q9WEZojjF-372">
          <mxGeometry relative="1" as="geometry" />
        </mxCell>
        <mxCell id="CmxnrNPB1Q9Q9WEZojjF-373" value="id" style="ellipse;whiteSpace=wrap;html=1;" vertex="1" parent="1">
          <mxGeometry x="-129" y="1870" width="62" height="40" as="geometry" />
        </mxCell>
        <mxCell id="CmxnrNPB1Q9Q9WEZojjF-381" style="edgeStyle=orthogonalEdgeStyle;rounded=0;orthogonalLoop=1;jettySize=auto;html=1;entryX=0;entryY=0.5;entryDx=0;entryDy=0;" edge="1" parent="1" source="CmxnrNPB1Q9Q9WEZojjF-374" target="CmxnrNPB1Q9Q9WEZojjF-372">
          <mxGeometry relative="1" as="geometry" />
        </mxCell>
        <mxCell id="CmxnrNPB1Q9Q9WEZojjF-374" value="date" style="ellipse;whiteSpace=wrap;html=1;" vertex="1" parent="1">
          <mxGeometry x="-130" y="1930" width="62" height="40" as="geometry" />
        </mxCell>
        <mxCell id="CmxnrNPB1Q9Q9WEZojjF-382" style="edgeStyle=orthogonalEdgeStyle;rounded=0;orthogonalLoop=1;jettySize=auto;html=1;entryX=0;entryY=0.75;entryDx=0;entryDy=0;" edge="1" parent="1" source="CmxnrNPB1Q9Q9WEZojjF-375" target="CmxnrNPB1Q9Q9WEZojjF-372">
          <mxGeometry relative="1" as="geometry" />
        </mxCell>
        <mxCell id="CmxnrNPB1Q9Q9WEZojjF-375" value="desc" style="ellipse;whiteSpace=wrap;html=1;" vertex="1" parent="1">
          <mxGeometry x="-129" y="1990" width="62" height="40" as="geometry" />
        </mxCell>
        <mxCell id="CmxnrNPB1Q9Q9WEZojjF-376" value="amount" style="ellipse;whiteSpace=wrap;html=1;" vertex="1" parent="1">
          <mxGeometry x="-46.25" y="2010" width="62" height="40" as="geometry" />
        </mxCell>
        <mxCell id="CmxnrNPB1Q9Q9WEZojjF-377" value="type" style="ellipse;whiteSpace=wrap;html=1;" vertex="1" parent="1">
          <mxGeometry x="-49.25" y="1850" width="62" height="40" as="geometry" />
        </mxCell>
        <mxCell id="CmxnrNPB1Q9Q9WEZojjF-379" style="edgeStyle=orthogonalEdgeStyle;rounded=0;orthogonalLoop=1;jettySize=auto;html=1;entryX=0.13;entryY=0.029;entryDx=0;entryDy=0;entryPerimeter=0;" edge="1" parent="1" source="CmxnrNPB1Q9Q9WEZojjF-377" target="CmxnrNPB1Q9Q9WEZojjF-372">
          <mxGeometry relative="1" as="geometry" />
        </mxCell>
        <mxCell id="CmxnrNPB1Q9Q9WEZojjF-383" style="edgeStyle=orthogonalEdgeStyle;rounded=0;orthogonalLoop=1;jettySize=auto;html=1;entryX=0.108;entryY=1.002;entryDx=0;entryDy=0;entryPerimeter=0;" edge="1" parent="1" source="CmxnrNPB1Q9Q9WEZojjF-376" target="CmxnrNPB1Q9Q9WEZojjF-372">
          <mxGeometry relative="1" as="geometry" />
        </mxCell>
        <mxCell id="CmxnrNPB1Q9Q9WEZojjF-384" value="flightdetiels" style="rounded=0;whiteSpace=wrap;html=1;" vertex="1" parent="1">
          <mxGeometry x="415" y="2290" width="120" height="60" as="geometry" />
        </mxCell>
        <mxCell id="CmxnrNPB1Q9Q9WEZojjF-394" style="edgeStyle=orthogonalEdgeStyle;rounded=0;orthogonalLoop=1;jettySize=auto;html=1;entryX=0;entryY=0.75;entryDx=0;entryDy=0;" edge="1" parent="1" source="CmxnrNPB1Q9Q9WEZojjF-386" target="CmxnrNPB1Q9Q9WEZojjF-384">
          <mxGeometry relative="1" as="geometry" />
        </mxCell>
        <mxCell id="CmxnrNPB1Q9Q9WEZojjF-386" value="ppp" style="ellipse;whiteSpace=wrap;html=1;" vertex="1" parent="1">
          <mxGeometry x="357.5" y="2370" width="65" height="40" as="geometry" />
        </mxCell>
        <mxCell id="CmxnrNPB1Q9Q9WEZojjF-387" value="dep_time" style="ellipse;whiteSpace=wrap;html=1;" vertex="1" parent="1">
          <mxGeometry x="452.5" y="2370" width="65" height="40" as="geometry" />
        </mxCell>
        <mxCell id="CmxnrNPB1Q9Q9WEZojjF-393" style="edgeStyle=orthogonalEdgeStyle;rounded=0;orthogonalLoop=1;jettySize=auto;html=1;entryX=0;entryY=0.5;entryDx=0;entryDy=0;" edge="1" parent="1" source="CmxnrNPB1Q9Q9WEZojjF-389" target="CmxnrNPB1Q9Q9WEZojjF-384">
          <mxGeometry relative="1" as="geometry" />
        </mxCell>
        <mxCell id="CmxnrNPB1Q9Q9WEZojjF-389" value="numberofpass" style="ellipse;whiteSpace=wrap;html=1;" vertex="1" parent="1">
          <mxGeometry x="295" y="2300" width="87.5" height="40" as="geometry" />
        </mxCell>
        <mxCell id="CmxnrNPB1Q9Q9WEZojjF-390" value="arr_time" style="ellipse;whiteSpace=wrap;html=1;" vertex="1" parent="1">
          <mxGeometry x="540" y="2370" width="65" height="40" as="geometry" />
        </mxCell>
        <mxCell id="CmxnrNPB1Q9Q9WEZojjF-397" style="edgeStyle=orthogonalEdgeStyle;rounded=0;orthogonalLoop=1;jettySize=auto;html=1;" edge="1" parent="1" source="CmxnrNPB1Q9Q9WEZojjF-391" target="CmxnrNPB1Q9Q9WEZojjF-384">
          <mxGeometry relative="1" as="geometry" />
        </mxCell>
        <mxCell id="CmxnrNPB1Q9Q9WEZojjF-391" value="time_spent" style="ellipse;whiteSpace=wrap;html=1;" vertex="1" parent="1">
          <mxGeometry x="570" y="2320" width="65" height="40" as="geometry" />
        </mxCell>
        <mxCell id="CmxnrNPB1Q9Q9WEZojjF-395" style="edgeStyle=orthogonalEdgeStyle;rounded=0;orthogonalLoop=1;jettySize=auto;html=1;entryX=0.56;entryY=0.96;entryDx=0;entryDy=0;entryPerimeter=0;" edge="1" parent="1" source="CmxnrNPB1Q9Q9WEZojjF-387" target="CmxnrNPB1Q9Q9WEZojjF-384">
          <mxGeometry relative="1" as="geometry" />
        </mxCell>
        <mxCell id="CmxnrNPB1Q9Q9WEZojjF-396" style="edgeStyle=orthogonalEdgeStyle;rounded=0;orthogonalLoop=1;jettySize=auto;html=1;entryX=0.956;entryY=1.04;entryDx=0;entryDy=0;entryPerimeter=0;" edge="1" parent="1" source="CmxnrNPB1Q9Q9WEZojjF-390" target="CmxnrNPB1Q9Q9WEZojjF-384">
          <mxGeometry relative="1" as="geometry">
            <Array as="points">
              <mxPoint x="540" y="2350" />
              <mxPoint x="530" y="2350" />
            </Array>
          </mxGeometry>
        </mxCell>
        <mxCell id="CmxnrNPB1Q9Q9WEZojjF-398" value="owns" style="rhombus;whiteSpace=wrap;html=1;" vertex="1" parent="1">
          <mxGeometry x="313" y="1820" width="80" height="80" as="geometry" />
        </mxCell>
        <mxCell id="CmxnrNPB1Q9Q9WEZojjF-399" style="edgeStyle=orthogonalEdgeStyle;rounded=0;orthogonalLoop=1;jettySize=auto;html=1;entryX=0.088;entryY=0.5;entryDx=0;entryDy=0;entryPerimeter=0;" edge="1" parent="1" source="CmxnrNPB1Q9Q9WEZojjF-294" target="CmxnrNPB1Q9Q9WEZojjF-398">
          <mxGeometry relative="1" as="geometry">
            <Array as="points">
              <mxPoint x="240" y="1860" />
            </Array>
          </mxGeometry>
        </mxCell>
        <mxCell id="CmxnrNPB1Q9Q9WEZojjF-404" value="1" style="text;html=1;align=center;verticalAlign=middle;whiteSpace=wrap;rounded=0;" vertex="1" parent="1">
          <mxGeometry x="223" y="1790" width="60" height="30" as="geometry" />
        </mxCell>
        <mxCell id="CmxnrNPB1Q9Q9WEZojjF-405" value="m" style="text;html=1;align=center;verticalAlign=middle;whiteSpace=wrap;rounded=0;" vertex="1" parent="1">
          <mxGeometry x="142.5" y="2130" width="60" height="30" as="geometry" />
        </mxCell>
        <mxCell id="CmxnrNPB1Q9Q9WEZojjF-411" style="edgeStyle=orthogonalEdgeStyle;rounded=0;orthogonalLoop=1;jettySize=auto;html=1;" edge="1" parent="1" source="CmxnrNPB1Q9Q9WEZojjF-409" target="CmxnrNPB1Q9Q9WEZojjF-345">
          <mxGeometry relative="1" as="geometry" />
        </mxCell>
        <mxCell id="CmxnrNPB1Q9Q9WEZojjF-435" style="edgeStyle=orthogonalEdgeStyle;rounded=0;orthogonalLoop=1;jettySize=auto;html=1;" edge="1" parent="1" source="CmxnrNPB1Q9Q9WEZojjF-409" target="CmxnrNPB1Q9Q9WEZojjF-384">
          <mxGeometry relative="1" as="geometry" />
        </mxCell>
        <mxCell id="CmxnrNPB1Q9Q9WEZojjF-409" value="assigned" style="rhombus;whiteSpace=wrap;html=1;" vertex="1" parent="1">
          <mxGeometry x="415" y="2150" width="80" height="80" as="geometry" />
        </mxCell>
        <mxCell id="CmxnrNPB1Q9Q9WEZojjF-412" value="m" style="text;html=1;align=center;verticalAlign=middle;whiteSpace=wrap;rounded=0;" vertex="1" parent="1">
          <mxGeometry x="245" y="2165" width="60" height="30" as="geometry" />
        </mxCell>
        <mxCell id="CmxnrNPB1Q9Q9WEZojjF-413" value="m" style="text;html=1;align=center;verticalAlign=middle;whiteSpace=wrap;rounded=0;" vertex="1" parent="1">
          <mxGeometry x="625" y="2150" width="60" height="30" as="geometry" />
        </mxCell>
        <mxCell id="CmxnrNPB1Q9Q9WEZojjF-415" style="edgeStyle=orthogonalEdgeStyle;rounded=0;orthogonalLoop=1;jettySize=auto;html=1;entryX=0.442;entryY=-0.03;entryDx=0;entryDy=0;entryPerimeter=0;" edge="1" parent="1" source="CmxnrNPB1Q9Q9WEZojjF-398" target="CmxnrNPB1Q9Q9WEZojjF-336">
          <mxGeometry relative="1" as="geometry">
            <Array as="points">
              <mxPoint x="353" y="2050" />
              <mxPoint x="190" y="2050" />
            </Array>
          </mxGeometry>
        </mxCell>
        <mxCell id="CmxnrNPB1Q9Q9WEZojjF-416" value="has" style="rhombus;whiteSpace=wrap;html=1;" vertex="1" parent="1">
          <mxGeometry x="410" y="1930" width="80" height="80" as="geometry" />
        </mxCell>
        <mxCell id="CmxnrNPB1Q9Q9WEZojjF-418" style="edgeStyle=orthogonalEdgeStyle;rounded=0;orthogonalLoop=1;jettySize=auto;html=1;entryX=0.889;entryY=0.01;entryDx=0;entryDy=0;entryPerimeter=0;" edge="1" parent="1" source="CmxnrNPB1Q9Q9WEZojjF-416" target="CmxnrNPB1Q9Q9WEZojjF-336">
          <mxGeometry relative="1" as="geometry">
            <Array as="points">
              <mxPoint x="450" y="2100" />
              <mxPoint x="243" y="2100" />
            </Array>
          </mxGeometry>
        </mxCell>
        <mxCell id="CmxnrNPB1Q9Q9WEZojjF-419" value="1" style="text;html=1;align=center;verticalAlign=middle;whiteSpace=wrap;rounded=0;" vertex="1" parent="1">
          <mxGeometry x="641.25" y="1940" width="60" height="30" as="geometry" />
        </mxCell>
        <mxCell id="CmxnrNPB1Q9Q9WEZojjF-420" value="1" style="text;html=1;align=center;verticalAlign=middle;whiteSpace=wrap;rounded=0;" vertex="1" parent="1">
          <mxGeometry x="197.5" y="2135" width="60" height="30" as="geometry" />
        </mxCell>
        <mxCell id="CmxnrNPB1Q9Q9WEZojjF-421" value="employs" style="rhombus;whiteSpace=wrap;html=1;" vertex="1" parent="1">
          <mxGeometry x="422.5" y="1720" width="80" height="80" as="geometry" />
        </mxCell>
        <mxCell id="CmxnrNPB1Q9Q9WEZojjF-423" style="edgeStyle=orthogonalEdgeStyle;rounded=0;orthogonalLoop=1;jettySize=auto;html=1;entryX=0.004;entryY=0.597;entryDx=0;entryDy=0;entryPerimeter=0;" edge="1" parent="1" source="CmxnrNPB1Q9Q9WEZojjF-421" target="CmxnrNPB1Q9Q9WEZojjF-306">
          <mxGeometry relative="1" as="geometry" />
        </mxCell>
        <mxCell id="CmxnrNPB1Q9Q9WEZojjF-426" value="1" style="text;html=1;align=center;verticalAlign=middle;whiteSpace=wrap;rounded=0;" vertex="1" parent="1">
          <mxGeometry x="245" y="1730" width="60" height="30" as="geometry" />
        </mxCell>
        <mxCell id="CmxnrNPB1Q9Q9WEZojjF-427" value="m" style="text;html=1;align=center;verticalAlign=middle;whiteSpace=wrap;rounded=0;" vertex="1" parent="1">
          <mxGeometry x="641.25" y="1750" width="60" height="30" as="geometry" />
        </mxCell>
        <mxCell id="CmxnrNPB1Q9Q9WEZojjF-431" style="edgeStyle=orthogonalEdgeStyle;rounded=0;orthogonalLoop=1;jettySize=auto;html=1;" edge="1" parent="1" source="CmxnrNPB1Q9Q9WEZojjF-428" target="CmxnrNPB1Q9Q9WEZojjF-372">
          <mxGeometry relative="1" as="geometry" />
        </mxCell>
        <mxCell id="CmxnrNPB1Q9Q9WEZojjF-428" value="has" style="rhombus;whiteSpace=wrap;html=1;" vertex="1" parent="1">
          <mxGeometry x="150" y="1900" width="80" height="80" as="geometry" />
        </mxCell>
        <mxCell id="CmxnrNPB1Q9Q9WEZojjF-432" value="1" style="text;html=1;align=center;verticalAlign=middle;whiteSpace=wrap;rounded=0;" vertex="1" parent="1">
          <mxGeometry x="160" y="1790" width="60" height="30" as="geometry" />
        </mxCell>
        <mxCell id="CmxnrNPB1Q9Q9WEZojjF-433" value="m" style="text;html=1;align=center;verticalAlign=middle;whiteSpace=wrap;rounded=0;" vertex="1" parent="1">
          <mxGeometry x="73" y="1950" width="60" height="30" as="geometry" />
        </mxCell>
      </root>
    </mxGraphModel>
  </diagram>
</mxfile>
